<?xml version="1.0" encoding="UTF-8"?>
<svg version="1.1" xmlns="http://www.w3.org/2000/svg" width="128" height="128">
<path d="M0 0 C4.11613619 2.56823008 7.56185556 5.58892756 11 9 C14.79184329 7.71220416 16.87065649 6.30170234 19.5625 3.375 C23.05510756 0.19446954 25.47035439 -0.55421456 30.1875 -0.6875 C33.89480648 -0.45374802 35.82086493 -0.09673294 39.125 1.6875 C42.59729099 5.96999223 43.36454574 10.43500199 44.125 15.8125 C44.29257813 16.97394531 44.46015625 18.13539062 44.6328125 19.33203125 C44.81457031 20.65267578 44.81457031 20.65267578 45 22 C46.16917969 22.03738281 47.33835937 22.07476563 48.54296875 22.11328125 C50.09117675 22.1789628 51.63935242 22.24540939 53.1875 22.3125 C53.95642578 22.33505859 54.72535156 22.35761719 55.51757812 22.38085938 C61.10327944 22.64456201 64.68104163 23.68104163 68.75 27.75 C70.51375407 30.92475732 70.87694316 33.36982333 71 37 C69.88344627 40.23212923 68.50475978 43.09888522 66.8359375 46.078125 C66.45695312 46.77421875 66.07796875 47.4703125 65.6875 48.1875 C65.32011719 48.82042969 64.95273438 49.45335937 64.57421875 50.10546875 C63.80279638 52.01515271 63.80279638 52.01515271 64.609375 53.98046875 C66.31667236 56.45988654 68.26369666 58.18411628 70.5625 60.125 C75.85674503 64.61451978 75.85674503 64.61451978 76.2734375 68.64453125 C76.54408692 77.08671124 76.54408692 77.08671124 74.25 80.9375 C69.42383929 84.00025583 62.86093104 88 57 88 C57.17917969 89.21816406 57.35835938 90.43632813 57.54296875 91.69140625 C57.75881837 93.31497076 57.9736059 94.93867671 58.1875 96.5625 C58.36829102 97.76229492 58.36829102 97.76229492 58.55273438 98.98632812 C59.2684445 104.64274686 58.78236484 107.99045217 56 113 C52.44625638 116.24017801 49.02966268 116.44350405 44.41015625 116.3046875 C41.09285764 115.88532074 38.14549285 114.87691522 35.04296875 113.65625 C32.72290695 112.79611174 32.72290695 112.79611174 29 113 C27.4442333 115.12014273 26.19015395 117.08691533 24.9375 119.375 C21.35388225 125.7640785 21.35388225 125.7640785 18 128 C12.74571337 128.71105018 7.73096955 129.11551371 3.1875 126.1875 C-0.00505323 121.53549386 -3.06982286 116.82170359 -6 112 C-6.76183594 112.28875 -7.52367187 112.5775 -8.30859375 112.875 C-15.70686581 115.53505287 -22.25601559 117.75321163 -29.875 114.9375 C-32.69310538 112.36805098 -34.04986308 109.63977497 -35 106 C-35.07347879 102.79500772 -34.66440253 99.72739863 -34.1875 96.5625 C-34.02411133 95.32209961 -34.02411133 95.32209961 -33.85742188 94.05664062 C-33.58870399 92.03541481 -33.29672521 90.01730445 -33 88 C-33.60900146 87.81083008 -34.21800293 87.62166016 -34.84545898 87.42675781 C-48.59464431 83.10803354 -48.59464431 83.10803354 -52 78 C-52.77385706 72.35491642 -52.94705661 67.549729 -49.9375 62.625 C-43.15454545 56.56363636 -43.15454545 56.56363636 -40 54 C-41.14268273 50.05255057 -42.70297216 46.69715011 -44.6875 43.125 C-47.24156425 38.07750211 -47.63191578 35.43971926 -46 30 C-43.89511508 26.54949222 -41.93134823 24.31044941 -38 23 C-36.66636297 22.85596652 -35.32781954 22.75409577 -33.98828125 22.68359375 C-33.23095703 22.64169922 -32.47363281 22.59980469 -31.69335938 22.55664062 C-30.51483398 22.49766602 -30.51483398 22.49766602 -29.3125 22.4375 C-28.51521484 22.39431641 -27.71792969 22.35113281 -26.89648438 22.30664062 C-24.93118553 22.20072632 -22.96561504 22.09987449 -21 22 C-20.89042969 21.13117187 -20.78085937 20.26234375 -20.66796875 19.3671875 C-18.76326586 5.52324945 -18.76326586 5.52324945 -14.24609375 1.3984375 C-9.79822952 -1.37084145 -4.99680753 -1.07715612 0 0 Z " fill="#651AFF" transform="translate(52,0)"/>
<path d="M0 0 C4.11613619 2.56823008 7.56185556 5.58892756 11 9 C14.79184329 7.71220416 16.87065649 6.30170234 19.5625 3.375 C23.05510756 0.19446954 25.47035439 -0.55421456 30.1875 -0.6875 C33.89480648 -0.45374802 35.82086493 -0.09673294 39.125 1.6875 C42.59729099 5.96999223 43.36454574 10.43500199 44.125 15.8125 C44.29257813 16.97394531 44.46015625 18.13539062 44.6328125 19.33203125 C44.81457031 20.65267578 44.81457031 20.65267578 45 22 C46.16917969 22.03738281 47.33835937 22.07476563 48.54296875 22.11328125 C50.09117675 22.1789628 51.63935242 22.24540939 53.1875 22.3125 C53.95642578 22.33505859 54.72535156 22.35761719 55.51757812 22.38085938 C61.10327944 22.64456201 64.68104163 23.68104163 68.75 27.75 C70.51375407 30.92475732 70.87694316 33.36982333 71 37 C69.88344627 40.23212923 68.50475978 43.09888522 66.8359375 46.078125 C66.45695312 46.77421875 66.07796875 47.4703125 65.6875 48.1875 C65.32011719 48.82042969 64.95273438 49.45335937 64.57421875 50.10546875 C63.80279638 52.01515271 63.80279638 52.01515271 64.609375 53.98046875 C66.31667236 56.45988654 68.26369666 58.18411628 70.5625 60.125 C75.85674503 64.61451978 75.85674503 64.61451978 76.2734375 68.64453125 C76.54408692 77.08671124 76.54408692 77.08671124 74.25 80.9375 C69.42383929 84.00025583 62.86093104 88 57 88 C57.17917969 89.21816406 57.35835938 90.43632813 57.54296875 91.69140625 C57.75881837 93.31497076 57.9736059 94.93867671 58.1875 96.5625 C58.36829102 97.76229492 58.36829102 97.76229492 58.55273438 98.98632812 C59.2684445 104.64274686 58.78236484 107.99045217 56 113 C52.44625638 116.24017801 49.02966268 116.44350405 44.41015625 116.3046875 C41.09285764 115.88532074 38.14549285 114.87691522 35.04296875 113.65625 C32.72290695 112.79611174 32.72290695 112.79611174 29 113 C27.4442333 115.12014273 26.19015395 117.08691533 24.9375 119.375 C21.35388225 125.7640785 21.35388225 125.7640785 18 128 C12.74571337 128.71105018 7.73096955 129.11551371 3.1875 126.1875 C-0.00505323 121.53549386 -3.06982286 116.82170359 -6 112 C-6.76183594 112.28875 -7.52367187 112.5775 -8.30859375 112.875 C-15.70686581 115.53505287 -22.25601559 117.75321163 -29.875 114.9375 C-32.69310538 112.36805098 -34.04986308 109.63977497 -35 106 C-35.07347879 102.79500772 -34.66440253 99.72739863 -34.1875 96.5625 C-34.02411133 95.32209961 -34.02411133 95.32209961 -33.85742188 94.05664062 C-33.58870399 92.03541481 -33.29672521 90.01730445 -33 88 C-33.60900146 87.81083008 -34.21800293 87.62166016 -34.84545898 87.42675781 C-48.59464431 83.10803354 -48.59464431 83.10803354 -52 78 C-52.77385706 72.35491642 -52.94705661 67.549729 -49.9375 62.625 C-43.15454545 56.56363636 -43.15454545 56.56363636 -40 54 C-41.14268273 50.05255057 -42.70297216 46.69715011 -44.6875 43.125 C-47.24156425 38.07750211 -47.63191578 35.43971926 -46 30 C-43.89511508 26.54949222 -41.93134823 24.31044941 -38 23 C-36.66636297 22.85596652 -35.32781954 22.75409577 -33.98828125 22.68359375 C-33.23095703 22.64169922 -32.47363281 22.59980469 -31.69335938 22.55664062 C-30.51483398 22.49766602 -30.51483398 22.49766602 -29.3125 22.4375 C-28.51521484 22.39431641 -27.71792969 22.35113281 -26.89648438 22.30664062 C-24.93118553 22.20072632 -22.96561504 22.09987449 -21 22 C-20.89042969 21.13117187 -20.78085937 20.26234375 -20.66796875 19.3671875 C-18.76326586 5.52324945 -18.76326586 5.52324945 -14.24609375 1.3984375 C-9.79822952 -1.37084145 -4.99680753 -1.07715612 0 0 Z M-7 11 C-7.10022461 11.59014893 -7.20044922 12.18029785 -7.30371094 12.78833008 C-7.768543 15.46638462 -8.25893666 18.13913654 -8.75 20.8125 C-8.98589844 22.2056543 -8.98589844 22.2056543 -9.2265625 23.62695312 C-9.39414062 24.51962891 -9.56171875 25.41230469 -9.734375 26.33203125 C-9.88100586 27.15421143 -10.02763672 27.9763916 -10.17871094 28.82348633 C-11.24348296 31.64525879 -12.38900007 32.53145708 -15 34 C-17.19824219 34.43237305 -17.19824219 34.43237305 -19.546875 34.51171875 C-20.39121094 34.54716797 -21.23554688 34.58261719 -22.10546875 34.61914062 C-22.97816406 34.64169922 -23.85085937 34.66425781 -24.75 34.6875 C-25.63816406 34.72166016 -26.52632812 34.75582031 -27.44140625 34.79101562 C-29.62747803 34.87328714 -31.81315951 34.94250172 -34 35 C-32.86940739 40.13584344 -30.10326601 44.28145158 -27.49609375 48.80859375 C-26.01377752 51.97061035 -25.40336327 53.58816474 -26 57 C-27.25 58.7734375 -27.25 58.7734375 -29 60.375 C-29.94552734 61.25478516 -29.94552734 61.25478516 -30.91015625 62.15234375 C-31.94462891 63.06693359 -31.94462891 63.06693359 -33 64 C-33.74121094 64.66128906 -34.48242188 65.32257813 -35.24609375 66.00390625 C-37.15125283 67.68492897 -39.06846642 69.34941676 -41 71 C-38.71872098 74.42191852 -37.14172672 74.81065644 -33.375 76.10546875 C-29.08820656 77.72006694 -25.0622729 79.89394458 -21 82 C-21.59288188 89.34164374 -22.238212 96.67386859 -23 104 C-18.59941726 103.61734063 -15.07956784 102.72165248 -11 101 C-6.92043216 99.27834752 -3.40058274 98.38265937 1 98 C1.24492188 98.68449219 1.48984375 99.36898437 1.7421875 100.07421875 C3.22754063 103.52927929 5.12405162 106.6413857 7.125 109.8125 C7.49753906 110.40998047 7.87007812 111.00746094 8.25390625 111.62304688 C9.1657048 113.08426251 10.08235976 114.54244585 11 116 C14.34443207 114.88518931 14.56510861 114.54324296 16.2265625 111.65625 C16.6184375 110.98722656 17.0103125 110.31820312 17.4140625 109.62890625 C18.01347656 108.57509766 18.01347656 108.57509766 18.625 107.5 C22.93722707 100.06277293 22.93722707 100.06277293 24 99 C29.97829936 99.40761132 35.43645616 101.306563 41.109375 103.16015625 C43.9784521 104.13950161 43.9784521 104.13950161 47 104 C46.46589137 96.64748331 45.86859084 89.32097997 45 82 C51.35369701 77.72347316 57.87710964 74.78979873 65 72 C61.60955398 67.65599103 57.97012263 64.08171023 53.76953125 60.515625 C50.05707894 57.33586453 50.05707894 57.33586453 49.62890625 54.81640625 C50.13402496 50.98282109 51.93659961 48.16288303 53.9375 44.9375 C56.15651164 41.3004671 57.95123437 38.19506254 59 34 C48.11 33.505 48.11 33.505 37 33 C33.625 25.125 33.625 25.125 33.05078125 22.03515625 C32.86225586 21.05385742 32.86225586 21.05385742 32.66992188 20.05273438 C32.49299805 19.06756836 32.49299805 19.06756836 32.3125 18.0625 C32.18294922 17.37865234 32.05339844 16.69480469 31.91992188 15.99023438 C31.60610402 14.32816202 31.30200834 12.66425873 31 11 C26.37217733 12.96880476 22.68875708 16.34863333 18.86523438 19.54296875 C16.51224992 21.42645456 14.46144252 22.87255397 11.5390625 23.6796875 C7.45602536 22.58668986 4.86322789 19.83076946 1.8125 17 C0.57275322 15.87087678 -0.67056689 14.74566049 -1.91796875 13.625 C-2.73430786 12.87089844 -2.73430786 12.87089844 -3.56713867 12.1015625 C-4.96303909 10.79683707 -4.96303909 10.79683707 -7 11 Z " fill="#FBFAFF" transform="translate(52,0)"/>
<path d="M0 0 C2.125 0.8125 2.125 0.8125 4.25 2.375 C8.4854083 4.49270415 12.47135752 4.41346708 17.125 3.8125 C19.83626384 2.38628316 19.83626384 2.38628316 22.125 0.8125 C25.375 0.5625 25.375 0.5625 28.125 0.8125 C29.125 1.8125 29.125 1.8125 29.5625 4.125 C29.125 6.8125 29.125 6.8125 26.4375 9 C19.23483128 12.94108289 13.30878636 13.64073862 5.125 12.8125 C1.18996079 11.53692154 -1.92322967 9.76427033 -4.875 6.8125 C-5.1875 4.3125 -5.1875 4.3125 -4.875 1.8125 C-1.875 -0.1875 -1.875 -0.1875 0 0 Z " fill="#F5F0FF" transform="translate(51.875,64.1875)"/>
<path d="M0 0 C2.5625 0.1875 2.5625 0.1875 4.5625 2.1875 C7.46217757 2.49425232 10.28033178 2.69923371 13.1875 2.8125 C13.98929688 2.85117187 14.79109375 2.88984375 15.6171875 2.9296875 C17.59857556 3.02403931 19.58050645 3.10686215 21.5625 3.1875 C21.8925 2.1975 22.2225 1.2075 22.5625 0.1875 C24.8725 0.5175 27.1825 0.8475 29.5625 1.1875 C29.5625 3.1675 29.5625 5.1475 29.5625 7.1875 C27.2525 7.5175 24.9425 7.8475 22.5625 8.1875 C22.2325 7.1975 21.9025 6.2075 21.5625 5.1875 C18.76993781 5.30111602 15.97905882 5.4278589 13.1875 5.5625 C12.3934375 5.5934375 11.599375 5.624375 10.78125 5.65625 C6.19582625 5.70566421 6.19582625 5.70566421 2.5625 8.1875 C-0 8.375 -0 8.375 -2.4375 8.1875 C-3.4375 7.1875 -3.4375 7.1875 -3.5625 4.1875 C-3.39891479 0.26145498 -3.39891479 0.26145498 0 0 Z " fill="#CFB7FF" transform="translate(51.4375,51.8125)"/>
<path d="M0 0 C2.5 0.125 2.5 0.125 3.5 1.125 C3.625 4.125 3.625 4.125 3.5 7.125 C2.5 8.125 2.5 8.125 0 8.25 C-2.5 8.125 -2.5 8.125 -3.5 7.125 C-3.625 4.125 -3.625 4.125 -3.5 1.125 C-2.5 0.125 -2.5 0.125 0 0 Z " fill="#F6F1FF" transform="translate(51.5,51.875)"/>
<path d="M0 0 C0 1.98 0 3.96 0 6 C-2.31 6.33 -4.62 6.66 -7 7 C-7.6875 5.1875 -7.6875 5.1875 -8 3 C-5.85915306 -0.33020635 -3.75910189 -0.30479204 0 0 Z " fill="#F5F1FF" transform="translate(81,53)"/>
</svg>
