<svg width="98" height="32" viewBox="0 0 98 32" fill="none" xmlns="http://www.w3.org/2000/svg">
<g clip-path="url(#clip0_890_208)">
<path d="M50.675 8.53795C50.675 9.61913 49.8038 10.4897 48.7226 10.4897C47.6414 10.4897 46.7708 9.61913 46.7708 8.53795C46.7708 7.45677 47.6117 6.58619 48.7226 6.58619C49.8344 6.61619 50.675 7.48707 50.675 8.53795ZM42.6267 12.4721V12.9527C42.6267 12.9527 41.6962 11.7509 39.7141 11.7509C36.4412 11.7509 33.8882 14.2435 33.8882 17.6968C33.8882 21.1203 36.4112 23.6426 39.7141 23.6426C41.7262 23.6426 42.6267 22.4115 42.6267 22.4115V22.9218C42.6267 23.1621 42.8073 23.3418 43.0473 23.3418H45.4794V12.0503H43.0473C42.8073 12.0512 42.6267 12.2618 42.6267 12.4721ZM42.6267 19.7088C42.1767 20.3697 41.2756 20.9403 40.1947 20.9403C38.2729 20.9403 36.8012 19.7391 36.8012 17.6968C36.8012 15.6547 38.2729 14.4535 40.1947 14.4535C41.2459 14.4535 42.2067 15.0541 42.6267 15.6847V19.7088ZM47.2814 12.0512H50.1641V23.3426H47.2814V12.0512ZM90.3441 11.7506C88.362 11.7506 87.4308 12.9524 87.4308 12.9524V6.61619H84.5482V23.3426H86.9808C87.2211 23.3426 87.4008 23.1324 87.4008 22.9221V22.4118C87.4008 22.4118 88.332 23.643 90.3135 23.643C93.587 23.643 96.1394 21.1212 96.1394 17.6977C96.1394 14.2741 93.587 11.7506 90.3441 11.7506ZM89.8635 20.91C88.752 20.91 87.8814 20.34 87.4308 19.6788V15.6547C87.8814 15.0541 88.8423 14.4235 89.8635 14.4235C91.7853 14.4235 93.2567 15.6247 93.2567 17.6668C93.2567 19.7088 91.7856 20.91 89.8635 20.91ZM83.047 16.6462V23.3727H80.1638V16.9762C80.1638 15.1147 79.5632 14.3635 77.9426 14.3635C77.072 14.3635 76.1709 14.8141 75.5994 15.475V23.343H72.7173V12.0515H74.9988C75.2391 12.0515 75.4194 12.2618 75.4194 12.4721V12.9527C76.2603 12.0815 77.3711 11.7509 78.482 11.7509C79.7435 11.7509 80.7947 12.1118 81.6356 12.8324C82.6561 13.6733 83.047 14.7541 83.047 16.6462ZM65.7194 11.7506C63.7379 11.7506 62.8067 12.9524 62.8067 12.9524V6.61619H59.9241V23.3426H62.3561C62.5964 23.3426 62.7767 23.1324 62.7767 22.9221V22.4118C62.7767 22.4118 63.7079 23.643 65.6894 23.643C68.9629 23.643 71.5153 21.1212 71.5153 17.6977C71.5453 14.2738 68.9929 11.7506 65.7194 11.7506ZM65.2388 20.91C64.1279 20.91 63.2573 20.34 62.8067 19.6788V15.6547C63.2573 15.0541 64.2182 14.4235 65.2388 14.4235C67.1611 14.4235 68.6323 15.6247 68.6323 17.6668C68.6323 19.7088 67.1611 20.91 65.2388 20.91ZM57.4314 11.7506C58.302 11.7506 58.7526 11.9012 58.7526 11.9012V14.5735C58.7526 14.5735 56.3503 13.7626 54.8491 15.4747V23.3723H51.9658V12.0512H54.3985C54.6388 12.0512 54.8185 12.2615 54.8185 12.4718V12.9524C55.3597 12.3215 56.5309 11.7506 57.4314 11.7506ZM27.4923 22.3215C27.3423 21.9612 27.192 21.5709 27.042 21.2403C26.8014 20.7 26.5612 20.1891 26.3515 19.7088L26.3215 19.6788C24.2491 15.1741 22.0273 10.61 19.6847 6.1059L19.5947 5.9253C19.3483 5.45805 19.1082 4.98752 18.8744 4.51383C18.5738 3.97294 18.2738 3.40295 17.7932 2.86206C16.8323 1.66089 15.4509 1 13.9797 1C12.4779 1 11.1268 1.66089 10.1362 2.80177C9.68559 3.34206 9.35499 3.91265 9.055 4.45354C8.82063 4.92693 8.58052 5.39745 8.33471 5.86501L8.24442 6.0456C5.93206 10.5497 3.68001 15.1141 1.60795 19.6185L1.57765 19.6782C1.36766 20.1594 1.12706 20.6697 0.886764 21.2097C0.736767 21.5403 0.58677 21.9006 0.436773 22.2909C0.0461805 23.4018 -0.0741229 24.4529 0.0764741 25.5344C0.406768 27.7868 1.90794 29.6779 3.9803 30.5194C4.76118 30.85 5.57207 31 6.41265 31C6.65294 31 6.95295 30.97 7.19354 30.9397C8.18472 30.8197 9.2056 30.4897 10.1968 29.9191C11.428 29.2282 12.5991 28.2377 13.9203 26.7962C15.2415 28.2377 16.4427 29.2282 17.6438 29.9191C18.6353 30.4897 19.6559 30.8197 20.6468 30.9397C20.8871 30.9703 21.1877 31 21.4279 31C22.2688 31 23.1094 30.85 23.86 30.5194C25.9624 29.6779 27.4335 27.7568 27.7641 25.5344C28.0026 24.4835 27.8826 23.433 27.4923 22.3215ZM13.9494 23.8829C12.3276 21.8409 11.2765 19.9191 10.9165 18.298C10.7665 17.6071 10.7362 17.0065 10.8265 16.4659C10.8862 15.9853 11.0668 15.5647 11.3071 15.2044C11.8776 14.3941 12.8385 13.8832 13.9497 13.8832C15.0612 13.8832 16.0521 14.3638 16.5927 15.2044C16.8329 15.5647 17.0129 15.9856 17.0735 16.4659C17.1632 17.0068 17.1332 17.6371 16.9832 18.298C16.6218 19.8891 15.5706 21.8112 13.9494 23.8829ZM25.9306 25.2944C25.7206 26.8559 24.6694 28.2077 23.1982 28.8082C22.4776 29.1082 21.6964 29.1985 20.9162 29.1082C20.1656 29.0179 19.4144 28.7776 18.6341 28.3277C17.5529 27.7265 16.4721 26.7962 15.2106 25.4144C17.1923 22.9824 18.3935 20.7597 18.8441 18.7783C19.0544 17.8471 19.0847 17.0065 18.9941 16.2253C18.8744 15.4747 18.6038 14.7838 18.1835 14.1832C17.252 12.8315 15.6903 12.0512 13.9491 12.0512C12.2079 12.0512 10.6462 12.8621 9.71528 14.1832C9.29499 14.7838 9.0244 15.4747 8.9044 16.2253C8.7844 17.0065 8.8141 17.8771 9.0544 18.7783C9.50469 20.7597 10.7359 23.0121 12.6876 25.4444C11.4565 26.8259 10.3453 27.7571 9.26409 28.3577C8.48321 28.8083 7.73293 29.0485 6.98234 29.1382C6.17176 29.2285 5.39057 29.1082 4.69999 28.8382C3.22882 28.2377 2.17764 26.8859 1.96764 25.3244C1.87764 24.5738 1.93734 23.8232 2.23794 22.9824C2.32763 22.6818 2.47823 22.3818 2.62823 22.0215C2.83852 21.5409 3.07822 21.03 3.31881 20.5197L3.34912 20.46C5.42088 15.9853 7.64293 11.4209 9.95528 6.97678L10.0453 6.79619C10.2859 6.3462 10.5262 5.86561 10.7662 5.41501C11.0065 4.93442 11.2765 4.48383 11.607 4.09324C12.2376 3.37325 13.0782 2.98236 14.0094 2.98236C14.9406 2.98236 15.7812 3.37325 16.4118 4.09324C16.7424 4.48473 17.0123 4.93532 17.2526 5.41501C17.4932 5.86561 17.7335 6.3462 17.9732 6.79619L18.0635 6.97678C20.3406 11.4394 22.5332 15.9446 24.64 20.49V20.52C24.8806 21.0012 25.0906 21.5412 25.3309 22.0224C25.4809 22.3821 25.6312 22.6821 25.7212 22.9827C25.9609 23.7627 26.0509 24.5138 25.9306 25.2944Z" fill="#0C0A09"/>
</g>
<defs>
<clipPath id="clip0_890_208">
<rect width="96.1539" height="30" fill="white" transform="translate(0 1)"/>
</clipPath>
</defs>
</svg>
