<svg width="137" height="32" viewBox="0 0 137 32" fill="none" xmlns="http://www.w3.org/2000/svg">
<g clip-path="url(#clip0_890_47)">
<path d="M54.3099 12.6061C54.1906 12.6786 54.0485 12.7038 53.9116 12.6768C53.7747 12.6497 53.6529 12.5724 53.57 12.46C53.1624 11.8738 52.6156 11.3985 51.9788 11.0771C51.342 10.7556 50.6354 10.5982 49.9227 10.6189C47.1438 10.6189 45.4382 12.8219 45.4382 15.9682C45.4382 19.1144 47.1751 21.3593 49.9539 21.3593C50.6761 21.3766 51.3908 21.2089 52.0303 20.8721C52.6698 20.5353 53.2129 20.0405 53.6082 19.4346C53.6872 19.3207 53.806 19.2407 53.9411 19.2104C54.0762 19.1801 54.2178 19.2018 54.3377 19.2711L55.6577 20.0368C55.7298 20.0734 55.7932 20.1251 55.8435 20.1885C55.8938 20.2518 55.9299 20.3253 55.9494 20.4039C55.9688 20.4825 55.9711 20.5644 55.9562 20.644C55.9412 20.7236 55.9093 20.799 55.8626 20.8651C55.2173 21.8342 54.3369 22.6232 53.3041 23.1583C52.2713 23.6934 51.1197 23.9569 49.9574 23.9242C45.5146 23.9242 42.5029 20.6947 42.5029 15.9857C42.5029 11.2768 45.5146 8.08864 49.8914 8.08864C51.0343 8.05685 52.1676 8.30607 53.1922 8.81449C54.2167 9.32291 55.1014 10.0751 55.7688 11.0052C55.8147 11.0678 55.8473 11.1392 55.8645 11.215C55.8818 11.2908 55.8833 11.3693 55.8689 11.4456C55.8546 11.522 55.8247 11.5946 55.7812 11.6589C55.7377 11.7233 55.6815 11.7779 55.616 11.8196L54.3099 12.6061Z" fill="#0C0A09"/>
<path fill-rule="evenodd" clip-rule="evenodd" d="M64.022 22.4318V23.0721C64.022 23.1473 64.0371 23.2218 64.0666 23.291C64.0961 23.3601 64.1392 23.4226 64.1934 23.4747C64.2476 23.5267 64.3118 23.5672 64.382 23.5937C64.4522 23.6202 64.5271 23.6322 64.6021 23.629H66.0541C66.1271 23.629 66.1994 23.6146 66.2668 23.5866C66.3342 23.5586 66.3955 23.5176 66.4471 23.4659C66.4987 23.4142 66.5397 23.3528 66.5676 23.2852C66.5955 23.2177 66.6099 23.1452 66.6099 23.0721V15.7982C66.6099 13.1635 64.7411 12.0742 62.0942 12.0742C60.6063 12.0777 59.1419 12.4457 57.8285 13.1462C57.7031 13.2162 57.6093 13.3318 57.5667 13.4691C57.524 13.6065 57.5357 13.755 57.5993 13.884L58.0751 14.8794C58.1078 14.9462 58.1536 15.0056 58.2099 15.0542C58.2662 15.1028 58.3317 15.1394 58.4025 15.1618C58.4732 15.1843 58.5478 15.1921 58.6217 15.1848C58.6956 15.1776 58.7673 15.1554 58.8324 15.1196C59.7701 14.6313 60.8082 14.368 61.8649 14.3503C62.7855 14.3503 63.8727 14.6046 63.8727 15.5477C63.8727 16.5342 62.6833 16.7025 61.2158 16.91C61.0975 16.9266 60.9793 16.9435 60.8611 16.9606C59.3466 17.173 56.8906 17.6463 56.8906 20.4062C56.8906 22.6232 58.492 23.8866 60.7985 23.8866C62.3582 23.8866 63.3274 23.3297 64.022 22.4318ZM61.7456 18.6809C62.6227 18.5266 63.4183 18.3868 63.8727 18.0431V19.3379C63.8727 21.0292 62.6569 21.7566 61.3543 21.7566C60.3052 21.7566 59.5792 21.2867 59.5792 20.2809C59.5792 19.1881 60.4129 18.9201 61.4169 18.7392C61.5273 18.7192 61.637 18.7 61.7456 18.6809Z" fill="#0C0A09"/>
<path d="M68.9959 20.7487C69.0896 20.6394 69.2219 20.5707 69.3651 20.5571C69.5082 20.5435 69.6511 20.586 69.7637 20.6757C70.6924 21.3783 71.8307 21.7462 72.9942 21.7197C74.1925 21.7197 75.0783 21.3334 75.0783 20.3937C75.0783 19.5375 74.2655 19.367 72.2994 19.0225C70.2152 18.6744 68.2213 17.9783 68.2213 15.5978C68.2213 13.1162 70.3577 12.0688 72.7926 12.0688C74.3196 12.0462 75.8102 12.5362 77.027 13.4608C77.0864 13.5074 77.1357 13.5656 77.1719 13.6319C77.2081 13.6981 77.2304 13.7711 77.2376 13.8463C77.2447 13.9215 77.2365 13.9974 77.2135 14.0694C77.1904 14.1413 77.153 14.2078 77.1034 14.2648L76.4087 15.0827C76.3166 15.1924 76.1861 15.2625 76.0439 15.2787C75.9018 15.2949 75.7588 15.2559 75.6445 15.1697C74.7885 14.5424 73.7524 14.2102 72.6919 14.223C71.6672 14.223 70.771 14.5224 70.771 15.3333C70.771 16.2347 72.0284 16.4052 73.2894 16.621C75.9814 17.0909 77.6905 17.86 77.6905 20.1014C77.6905 22.4541 75.8112 23.9089 72.8274 23.9089C71.1966 23.9588 69.5995 23.4369 68.3117 22.4332C68.2539 22.3858 68.2061 22.3273 68.1711 22.2613C68.1361 22.1952 68.1146 22.1228 68.1078 22.0483C68.101 21.9738 68.1091 21.8987 68.1316 21.8273C68.154 21.756 68.1904 21.6898 68.2387 21.6327L68.9959 20.7487ZM79.3405 23.0735V8.90845C79.3405 8.83532 79.3548 8.76291 79.3828 8.69534C79.4107 8.62778 79.4516 8.56639 79.5032 8.51468C79.5548 8.46296 79.6161 8.42194 79.6835 8.39395C79.751 8.36597 79.8232 8.35156 79.8962 8.35156H81.4976C81.8046 8.35156 82.0534 8.6009 82.0534 8.90845V13.7462C82.4521 13.2131 82.9723 12.7833 83.5705 12.4927C84.1687 12.2021 84.8277 12.059 85.4923 12.0755C87.8614 12.0755 89.2507 13.767 89.2507 16.1824V23.0735C89.2507 23.1466 89.2364 23.219 89.2085 23.2866C89.1805 23.3542 89.1396 23.4156 89.088 23.4673C89.0364 23.519 88.9751 23.56 88.9077 23.588C88.8403 23.616 88.768 23.6304 88.695 23.6304H87.0936C86.9462 23.6304 86.8048 23.5717 86.7006 23.4673C86.5964 23.3628 86.5378 23.2212 86.5378 23.0735V16.8089C86.5378 15.6081 86.1523 14.5188 84.6169 14.5188C83.1615 14.5188 82.0534 15.5456 82.0534 17.2578V23.0769C82.0534 23.2246 81.9949 23.3663 81.8906 23.4707C81.7864 23.5751 81.645 23.6338 81.4976 23.6338H79.8962C79.8228 23.6343 79.75 23.6201 79.6822 23.592C79.6143 23.564 79.5527 23.5227 79.501 23.4705C79.4493 23.4183 79.4084 23.3563 79.3809 23.2882C79.3533 23.22 79.3396 23.147 79.3405 23.0735Z" fill="#0C0A09"/>
<path fill-rule="evenodd" clip-rule="evenodd" d="M105.72 19.8415L106.873 23.2523C106.908 23.3633 106.976 23.4606 107.069 23.5305C107.162 23.6004 107.274 23.6395 107.39 23.6421H109.374C109.464 23.6425 109.552 23.6212 109.632 23.5799C109.711 23.5387 109.78 23.4788 109.831 23.4053C109.883 23.3319 109.916 23.247 109.927 23.1579C109.939 23.0688 109.929 22.9782 109.898 22.8938L104.671 8.72878C104.63 8.62183 104.559 8.52961 104.465 8.46435C104.372 8.39908 104.26 8.36385 104.146 8.36332H101.579C101.468 8.362 101.358 8.39452 101.265 8.45663C101.172 8.51874 101.1 8.60755 101.058 8.71141L95.8092 22.8799C95.7785 22.964 95.7685 23.0542 95.78 23.143C95.7915 23.2318 95.8243 23.3165 95.8754 23.3899C95.9265 23.4633 95.9945 23.5233 96.0737 23.5648C96.1529 23.6063 96.2409 23.628 96.3302 23.6282H98.2091C98.3249 23.6286 98.4379 23.5925 98.5321 23.5251C98.6264 23.4576 98.6971 23.3622 98.7343 23.2523L99.8904 19.8415H105.72ZM100.593 17.4645L102.836 10.831L104.994 17.4645H100.593ZM113.924 13.7649V12.8878C113.928 12.8123 113.917 12.7369 113.89 12.666C113.864 12.5952 113.824 12.5305 113.771 12.476C113.72 12.4213 113.657 12.3778 113.588 12.3481C113.519 12.3184 113.444 12.3032 113.369 12.3032H111.767C111.46 12.3032 111.211 12.5526 111.211 12.86V26.7814C111.211 27.089 111.46 27.3383 111.767 27.3383H113.369C113.675 27.3383 113.924 27.089 113.924 26.7814V22.163C114.316 22.7147 114.839 23.16 115.445 23.4589C116.052 23.7579 116.723 23.9009 117.398 23.8753C120.472 23.8753 122.459 21.2965 122.459 17.9587C122.459 14.6212 120.472 12.0734 117.398 12.0734C116.725 12.0461 116.055 12.1863 115.449 12.4814C114.843 12.7766 114.319 13.2175 113.924 13.7649ZM119.607 17.9587C119.607 19.9044 118.707 21.5123 116.828 21.5123C114.915 21.5123 113.924 19.9077 113.924 17.9587C113.924 16.0097 114.967 14.447 116.828 14.447C118.69 14.447 119.607 16.0132 119.607 17.9587ZM126.846 13.7648V12.8877C126.85 12.8122 126.839 12.7366 126.813 12.6656C126.787 12.5945 126.747 12.5296 126.695 12.4747C126.643 12.4199 126.58 12.3764 126.511 12.3469C126.441 12.3174 126.366 12.3025 126.291 12.303H124.689C124.541 12.3031 124.4 12.3618 124.296 12.4662C124.192 12.5706 124.133 12.7122 124.133 12.8598V26.7814C124.133 27.0889 124.382 27.3381 124.689 27.3381H126.291C126.597 27.3381 126.846 27.0889 126.846 26.7813V22.1628C127.239 22.714 127.761 23.159 128.368 23.4578C128.974 23.7567 129.645 23.9001 130.32 23.8752C133.398 23.8752 135.385 21.2962 135.385 17.9586C135.385 14.621 133.398 12.0733 130.32 12.0733C129.647 12.0466 128.977 12.187 128.371 12.4821C127.765 12.7772 127.241 13.2179 126.846 13.7648ZM132.533 17.9586C132.533 19.9042 131.633 21.5121 129.754 21.5121C127.85 21.5121 126.846 19.9076 126.846 17.9586C126.846 16.0096 127.892 14.4469 129.754 14.4469C131.616 14.4469 132.533 16.013 132.533 17.9586Z" fill="#0C0A09"/>
<path fill-rule="evenodd" clip-rule="evenodd" d="M25.6591 1.4721C24.0231 0.957031 22.5329 0.957031 19.5038 0.957031H10.4168C7.40508 0.957031 5.89754 0.957031 4.28919 1.45816C3.41117 1.77671 2.61379 2.28476 1.95349 2.94634C1.29318 3.60791 0.786113 4.40684 0.468175 5.28655C-0.0458984 6.91558 -0.0458984 8.4224 -0.0458984 11.44V20.5445C-0.0458984 23.5793 -0.0458984 25.0724 0.454263 26.6978C0.772213 27.5775 1.27929 28.3764 1.93959 29.038C2.59989 29.6996 3.39727 30.2076 4.27528 30.5262C5.90107 31.0412 7.40508 31.0412 10.4167 31.0412H19.5177C22.5329 31.0412 24.0369 31.0412 25.6591 30.5262C26.5371 30.2076 27.3345 29.6995 27.9948 29.038C28.6551 28.3764 29.1622 27.5775 29.4802 26.6978C29.9942 25.0689 29.9942 23.562 29.9942 20.5445V11.4538C29.9942 8.4329 29.9942 6.92589 29.4802 5.30049C29.1622 4.42079 28.6551 3.62187 27.9948 2.96029C27.3345 2.29872 26.5372 1.79066 25.6591 1.4721ZM19.7539 12.3005C18.6275 11.3453 17.2002 10.8202 15.7245 10.8179C14.5086 10.8179 13.2929 11.2216 13.2929 12.3423C13.2929 13.3639 14.3754 13.7637 15.7089 14.2561C15.8382 14.3039 15.9698 14.3525 16.1031 14.4026C18.7396 15.2937 20.9106 16.3864 20.9106 18.9758C20.9106 21.788 18.7326 23.7091 15.1687 23.9284L14.8457 25.4354C14.8162 25.572 14.7407 25.6942 14.6319 25.7817C14.5231 25.8691 14.3876 25.9165 14.2481 25.9157H12.0076C11.9171 25.9135 11.8281 25.8914 11.747 25.851C11.666 25.8106 11.5947 25.7528 11.5384 25.6817C11.4821 25.6107 11.442 25.5281 11.4211 25.4398C11.4001 25.3515 11.3988 25.2597 11.4171 25.1708L11.7645 23.5803C10.4192 23.2366 9.18251 22.5578 8.16927 21.6069C8.11117 21.5507 8.06496 21.4834 8.0334 21.409C8.00183 21.3345 7.98557 21.2545 7.98557 21.1736C7.98557 21.0927 8.00183 21.0127 8.0334 20.9382C8.06496 20.8638 8.11117 20.7965 8.16927 20.7403L9.41286 19.5224C9.52591 19.411 9.67811 19.3486 9.83665 19.3486C9.9952 19.3486 10.1474 19.411 10.2604 19.5224C11.3996 20.6113 12.9206 21.2076 14.4948 21.1823C16.117 21.1823 17.2181 20.4932 17.2181 19.4005C17.2181 18.4125 16.3151 18.0815 14.6015 17.4535C14.4199 17.3869 14.2291 17.317 14.0293 17.2426C11.8271 16.456 9.74284 15.3319 9.74284 12.7182C9.74284 9.69372 12.2647 8.21812 15.2381 8.07186L15.5508 6.53706C15.5808 6.4017 15.6561 6.28066 15.7641 6.19395C15.8721 6.10724 16.0064 6.06005 16.1448 6.06018H18.3783C18.4682 6.05994 18.5569 6.07976 18.6382 6.1182C18.7194 6.15663 18.7911 6.21272 18.8479 6.28238C18.9048 6.35204 18.9455 6.43353 18.967 6.52092C18.9886 6.6083 18.9904 6.6994 18.9724 6.78758L18.6249 8.50348C19.762 8.87587 20.8157 9.46693 21.7269 10.2435C21.7891 10.297 21.8395 10.3629 21.8751 10.4369C21.9106 10.5109 21.9305 10.5914 21.9334 10.6735C21.9364 10.7556 21.9223 10.8374 21.8921 10.9137C21.862 10.9901 21.8164 11.0594 21.7582 11.1172L20.598 12.2831C20.4861 12.3934 20.3363 12.4567 20.1794 12.4599C20.0224 12.4631 19.8702 12.4061 19.7539 12.3005Z" fill="#0C0A09"/>
</g>
<defs>
<clipPath id="clip0_890_47">
<rect width="137" height="32" fill="white"/>
</clipPath>
</defs>
</svg>
