<svg width="109" height="32" viewBox="0 0 109 32" fill="none" xmlns="http://www.w3.org/2000/svg">
<g clip-path="url(#clip0_890_158)">
<path fill-rule="evenodd" clip-rule="evenodd" d="M5.5824 12.457V22.6231C2.25315 21.0337 0 17.9149 0 14.3463V12.487H5.5824V12.457Z" fill="#0C0A09"/>
<path fill-rule="evenodd" clip-rule="evenodd" d="M12.9994 8.39062V23.6308C12.125 23.8522 11.1834 23.9787 10.2082 23.9787C9.23293 23.9787 8.32494 23.8522 7.41699 23.6308V8.39062H12.9994Z" fill="#0C0A09"/>
<path fill-rule="evenodd" clip-rule="evenodd" d="M14.6543 5V22.6213C17.9836 20.9914 20.2367 17.7931 20.2367 14.1335V5H14.6543Z" fill="#0C0A09"/>
<path fill-rule="evenodd" clip-rule="evenodd" d="M25.1211 23.299V5H36.9838V7.87643H28.3913V12.7419H36.1822V15.5571H28.3913V20.4226H36.9838V23.299H25.1211Z" fill="#0C0A09"/>
<path fill-rule="evenodd" clip-rule="evenodd" d="M45.9212 23.4286H42.8991L37.749 11H41.0796L44.4411 19.8905L47.7406 11H50.9172L45.9212 23.4286Z" fill="#0C0A09"/>
<path fill-rule="evenodd" clip-rule="evenodd" d="M60.2194 15.7814C60.1566 14.3637 59.1541 13.0937 57.0555 13.0937C55.1136 13.0937 54.0171 14.4819 53.9232 15.7814H60.2194ZM63.1638 19.7095C62.4746 21.8359 60.4384 23.549 57.3377 23.549C53.8609 23.549 50.7598 21.1567 50.7598 17.0514C50.7598 13.2118 53.7669 10.6719 57.0243 10.6719C61.0024 10.6719 63.32 13.1528 63.32 16.9627C63.32 17.4353 63.2577 17.8488 63.2261 17.8783H53.8293C53.9232 19.7095 55.427 21.0385 57.3377 21.0385C59.1857 21.0385 60.1254 20.1229 60.5639 18.9121L63.1638 19.7095Z" fill="#0C0A09"/>
<path fill-rule="evenodd" clip-rule="evenodd" d="M68.0892 23.2989H64.8955V10.7871H67.9918V12.4615C68.8714 11.0307 70.4683 10.4219 71.9348 10.4219C75.1939 10.4219 76.7583 12.6441 76.7583 15.384V23.2989H73.5646V15.9015C73.5646 14.3489 72.8149 13.1312 70.8269 13.1312C69.0018 13.1312 68.0568 14.4402 68.0568 16.0841L68.0892 23.2989Z" fill="#0C0A09"/>
<path fill-rule="evenodd" clip-rule="evenodd" d="M79.5498 17.1128V5H82.672V16.9265C82.672 19.5354 84.1082 20.9951 86.4807 20.9951C88.8847 20.9951 90.2898 19.5665 90.2898 16.9265V5H93.5059V17.1128C93.5059 21.5852 90.4461 23.9768 86.5123 23.9768C82.6092 23.9768 79.5498 21.5852 79.5498 17.1128Z" fill="#0C0A09"/>
<path fill-rule="evenodd" clip-rule="evenodd" d="M102.212 13.7402C100.167 13.7402 98.6655 15.287 98.6655 17.592C98.6655 19.9577 100.135 21.5045 102.212 21.5045C104.288 21.5045 105.758 19.9577 105.758 17.592C105.726 15.287 104.32 13.7402 102.212 13.7402ZM95.5986 28.7228V11.3746H98.6019V13.073C99.2405 12.0115 100.742 11.1016 102.787 11.1016C106.652 11.1016 108.857 13.9222 108.857 17.592C108.857 21.3225 106.461 24.1431 102.691 24.1431C100.806 24.1431 99.3682 23.3849 98.6975 22.4144V28.6925L95.5986 28.7228Z" fill="#0C0A09"/>
</g>
<defs>
<clipPath id="clip0_890_158">
<rect width="108.857" height="24" fill="white" transform="translate(0 5)"/>
</clipPath>
</defs>
</svg>
