<svg width="89" height="32" viewBox="0 0 89 32" fill="none" xmlns="http://www.w3.org/2000/svg">
<g clip-path="url(#clip0_890_89)">
<path d="M37.7001 18.2622C37.7001 22.4345 34.4362 25.5089 30.4306 25.5089C26.4251 25.5089 23.1611 22.4345 23.1611 18.2622C23.1611 14.0606 26.4251 11.0156 30.4306 11.0156C34.4362 11.0156 37.7001 14.0606 37.7001 18.2622ZM34.5179 18.2622C34.5179 15.655 32.6262 13.8711 30.4306 13.8711C28.2351 13.8711 26.3434 15.655 26.3434 18.2622C26.3434 20.8433 28.2351 22.6534 30.4306 22.6534C32.6262 22.6534 34.5179 20.8401 34.5179 18.2622Z" fill="#0C0A09"/>
<path d="M53.3827 18.2622C53.3827 22.4345 50.1188 25.5089 46.1132 25.5089C42.1077 25.5089 38.8438 22.4345 38.8438 18.2622C38.8438 14.0639 42.1077 11.0156 46.1132 11.0156C50.1188 11.0156 53.3827 14.0606 53.3827 18.2622ZM50.2005 18.2622C50.2005 15.655 48.3088 13.8711 46.1132 13.8711C43.9177 13.8711 42.026 15.655 42.026 18.2622C42.026 20.8433 43.9177 22.6534 46.1132 22.6534C48.3088 22.6534 50.2005 20.8401 50.2005 18.2622Z" fill="#0C0A09"/>
<path d="M68.4116 11.4534V24.4634C68.4116 29.815 65.2555 32.0008 61.5244 32.0008C58.0122 32.0008 55.8983 29.6517 55.1011 27.7306L57.8717 26.5772C58.365 27.7567 59.5739 29.1485 61.5211 29.1485C63.9094 29.1485 65.3895 27.675 65.3895 24.9012V23.8589H65.2784C64.5661 24.7378 63.1939 25.5056 61.4623 25.5056C57.839 25.5056 54.5195 22.3495 54.5195 18.2884C54.5195 14.1979 57.839 11.0156 61.4623 11.0156C63.1906 11.0156 64.5629 11.7834 65.2784 12.6362H65.3895V11.4567H68.4116V11.4534ZM65.6149 18.2884C65.6149 15.7367 63.9127 13.8711 61.7466 13.8711C59.551 13.8711 57.7116 15.7367 57.7116 18.2884C57.7116 20.8139 59.551 22.6534 61.7466 22.6534C63.9127 22.6534 65.6149 20.8139 65.6149 18.2884Z" fill="#0C0A09"/>
<path d="M73.3939 3.82812V25.0649H70.29V3.82812H73.3939Z" fill="#0C0A09"/>
<path d="M85.4893 20.6467L87.9593 22.2933C87.1621 23.4728 85.241 25.505 81.9216 25.505C77.8049 25.505 74.7305 22.3227 74.7305 18.2583C74.7305 13.9489 77.831 11.0117 81.5654 11.0117C85.326 11.0117 87.1654 14.0045 87.7666 15.6217L88.0965 16.4451L78.4093 20.4572C79.151 21.9111 80.3043 22.6527 81.9216 22.6527C83.5421 22.6527 84.666 21.8555 85.4893 20.6467ZM77.8866 18.0394L84.3621 15.3505C84.006 14.4455 82.9344 13.815 81.6732 13.815C80.056 13.815 77.8049 15.2427 77.8866 18.0394Z" fill="#0C0A09"/>
<path d="M11.4123 16.3759V13.3014H21.7725C21.8738 13.8373 21.9261 14.4711 21.9261 15.1572C21.9261 17.4638 21.2955 20.3161 19.2633 22.3483C17.2867 24.4066 14.7612 25.5044 11.4156 25.5044C5.21443 25.5044 0 20.4533 0 14.2522C0 8.05107 5.21443 3 11.4156 3C14.8461 3 17.29 4.34608 19.1261 6.10056L16.9567 8.26998C15.64 7.03498 13.8561 6.07442 11.4123 6.07442C6.88397 6.07442 3.34233 9.72387 3.34233 14.2522C3.34233 18.7805 6.88397 22.43 11.4123 22.43C14.3495 22.43 16.0223 21.2505 17.0939 20.1789C17.963 19.3098 18.5348 18.0683 18.7602 16.3726L11.4123 16.3759Z" fill="#0C0A09"/>
</g>
<defs>
<clipPath id="clip0_890_89">
<rect width="89" height="32" fill="white"/>
</clipPath>
</defs>
</svg>
