<svg width="98" height="32" viewBox="0 0 98 32" fill="none" xmlns="http://www.w3.org/2000/svg">
<path d="M3.73274 18.4338C3.73274 19.5318 3.98051 20.3759 4.30402 20.8859C4.72815 21.554 5.36111 21.8374 6.00597 21.8374C6.83801 21.8374 7.59864 21.6362 9.06579 19.6604C10.2408 18.0766 11.6257 15.8542 12.5573 14.4601L14.1348 12.0987C15.2309 10.4591 16.499 8.63606 17.9542 7.40107C19.1411 6.39263 20.4222 5.83203 21.7119 5.83203C23.8759 5.83203 25.9381 7.05333 27.5156 9.34418C29.2425 11.8532 30.081 15.0134 30.081 18.2747C30.081 20.2136 29.6882 21.6383 29.0207 22.7637C28.3758 23.8522 27.1186 24.9397 25.0033 24.9397V21.8364C26.8145 21.8364 27.2657 20.2157 27.2657 18.3611C27.2657 15.7183 26.6327 12.7847 25.2392 10.6888C24.2502 9.20193 22.9681 8.29359 21.5572 8.29359C20.0316 8.29359 18.8047 9.41373 17.4251 11.4116C16.6916 12.4728 15.9385 13.7668 15.0935 15.2262L14.163 16.8321C12.2933 20.0608 11.8194 20.7953 10.8857 22.0092C9.24757 24.1336 7.84857 24.9397 6.00705 24.9397C3.82254 24.9397 2.44086 24.0187 1.58502 22.6299C0.884978 21.4992 0.541992 20.0145 0.541992 18.3221L3.73274 18.4338Z" fill="#0C0A09"/>
<path d="M3.05762 9.56336C4.52045 7.36735 6.63138 5.83203 9.05284 5.83203C10.4551 5.83203 11.8487 6.23667 13.3039 7.39369C14.8966 8.65925 16.5931 10.7425 18.7106 14.1777L19.4701 15.4106C21.303 18.3843 22.3449 19.9133 22.9551 20.6351C23.7396 21.5614 24.2892 21.8374 25.0033 21.8374C26.8146 21.8374 27.2657 20.2168 27.2657 18.3622L30.08 18.2758C30.08 20.2147 29.6872 21.6393 29.0196 22.7647C28.3748 23.8533 27.1175 24.9407 25.0022 24.9407C23.6876 24.9407 22.5224 24.6625 21.2348 23.4792C20.2448 22.5709 19.0871 20.9576 18.1966 19.5065L15.5479 15.1967C14.2193 13.0334 12.9999 11.4211 12.2934 10.6909C11.5338 9.90583 10.559 8.95746 9.00091 8.95746C7.74041 8.95746 6.67033 9.81837 5.77446 11.1366L3.05762 9.56336Z" fill="#0C0A09"/>
<path d="M9.00088 8.9564C7.74037 8.9564 6.6703 9.81731 5.77442 11.1356C4.50743 12.9975 3.73274 15.7699 3.73274 18.4338C3.73274 19.5318 3.98051 20.3759 4.30402 20.8859L1.58393 22.6309C0.884978 21.4992 0.541992 20.0145 0.541992 18.3221C0.541992 15.2462 1.40865 12.0397 3.05758 9.56336C4.52042 7.36735 6.63135 5.83203 9.05281 5.83203L9.00088 8.9564Z" fill="#0C0A09"/>
<path d="M36.2823 6.4375H39.973L46.2484 17.4934L52.525 6.4375H56.1355V24.6052H53.1244V10.681L47.6204 20.3228H44.7953L39.2924 10.681V24.6042H36.2812V6.4375H36.2823ZM65.5693 13.211C63.4096 13.211 62.1102 14.7937 61.7986 16.7537H69.1268C68.9753 14.7347 67.7797 13.211 65.5693 13.211ZM58.8134 17.8696C58.8134 13.7463 61.5497 10.7452 65.6212 10.7452C69.6267 10.7452 72.0178 13.7084 72.0178 18.0899V18.8949H61.7986C62.161 21.0267 63.6141 22.4629 65.9555 22.4629C67.8241 22.4629 68.9915 21.9076 70.0995 20.8918L71.6986 22.7991C70.1915 24.1489 68.2753 24.9266 65.8484 24.9266C61.4404 24.9287 58.8134 21.798 58.8134 17.8696ZM75.6684 13.4713H72.8975V11.0708H75.6684V7.10031H78.5735V11.0708H82.7835V13.4713H78.5735V19.5567C78.5735 21.6347 79.2552 22.3723 80.9322 22.3723C81.6972 22.3723 82.1365 22.308 82.7846 22.2037V24.5789C81.9774 24.8012 81.207 24.9034 80.3728 24.9034C77.2373 24.9034 75.6695 23.2343 75.6695 19.8949L75.6684 13.4713ZM95.0152 15.8064C94.432 14.3722 93.1304 13.3153 91.2175 13.3153C88.7322 13.3153 87.1406 15.0329 87.1406 17.8306C87.1406 20.5588 88.6056 22.3597 91.0985 22.3597C93.0579 22.3597 94.4569 21.249 95.0152 19.8675V15.8064ZM97.9203 24.6042H95.0693V22.7095C94.2719 23.8254 92.8221 24.9287 90.4731 24.9287C86.6948 24.9287 84.1706 21.8486 84.1706 17.8306C84.1706 13.7748 86.7565 10.7452 90.6332 10.7452C92.5505 10.7452 94.0533 11.4913 95.0693 12.8095V11.0708H97.9203V24.6042Z" fill="#0C0A09"/>
</svg>
