<svg width="127" height="32" viewBox="0 0 127 32" fill="none" xmlns="http://www.w3.org/2000/svg">
<path d="M33.5206 15.4342C31.6425 14.94 30.8517 14.6434 30.8517 13.5561C30.8517 12.7653 31.5437 12.1722 32.7793 12.1722C34.0643 12.1722 34.8056 12.7159 35.3987 13.4573L36.9308 12.1722C35.9424 10.8872 34.6573 10.1953 32.7298 10.1953C30.3081 10.1953 28.7265 11.5792 28.7265 13.6055C28.7265 15.7802 30.1598 16.7192 32.5816 17.3617C34.7068 17.9548 35.547 18.3996 35.547 19.4869C35.547 20.4754 34.6573 21.1179 33.0758 21.1179C31.4448 21.1179 30.2092 20.3765 29.4679 19.1409L27.8369 20.2777C28.9737 22.0075 30.7529 23.0454 33.0758 23.0454C35.9918 23.0454 37.7216 21.6615 37.7216 19.3386C37.771 17.164 36.14 16.1261 33.5206 15.4342Z" fill="#0C0A09"/>
<path d="M50.2752 12.6692C49.435 11.1371 47.9523 10.2969 45.9754 10.2969C42.5651 10.2969 39.9951 13.0646 39.9951 16.7219C39.9951 20.3792 42.5651 23.147 45.9754 23.147C48.0017 23.147 49.435 22.3068 50.2752 20.7746V22.8504H52.5487V10.544H50.2752V12.6692ZM46.4202 21.1206C43.9984 21.1206 42.4169 19.2919 42.4169 16.7219C42.4169 14.1025 43.9984 12.2738 46.4202 12.2738C48.7925 12.2738 50.374 14.1025 50.374 16.7219C50.374 19.2919 48.7925 21.1206 46.4202 21.1206Z" fill="#0C0A09"/>
<path d="M70.2909 10.2422C68.314 10.2422 66.9301 10.9835 65.9911 12.5157C65.2497 10.9835 63.9647 10.2422 62.2843 10.2422C60.6039 10.2422 59.3189 10.9341 58.627 12.2191V10.5387H56.3535V22.7957H58.627V15.7776C58.627 13.5536 59.7637 12.318 61.7901 12.318C63.5199 12.318 64.4095 13.3559 64.4095 15.2834V22.7957H66.683V15.6788C66.683 13.5041 67.8197 12.2685 69.8461 12.2685C71.5759 12.2685 72.4655 13.257 72.4655 15.1845V22.7463H74.739V14.9868C74.6896 12.0214 72.8609 10.2422 70.2909 10.2422Z" fill="#0C0A09"/>
<path d="M82.8946 15.4342C81.0165 14.94 80.2258 14.6434 80.2258 13.5561C80.2258 12.7653 80.9177 12.1722 82.1533 12.1722C83.4383 12.1722 84.1796 12.7159 84.7727 13.4573L86.3048 12.1722C85.3164 10.8872 84.0314 10.1953 82.1039 10.1953C79.6821 10.1953 78.1006 11.5792 78.1006 13.6055C78.1006 15.7802 79.5338 16.7192 81.9556 17.3617C84.0808 17.9548 84.921 18.3996 84.921 19.4869C84.921 20.4754 84.0314 21.1179 82.4498 21.1179C80.8188 21.1179 79.5833 20.3765 78.8419 19.1409L77.2109 20.2777C78.3477 22.0075 80.1269 23.0454 82.4498 23.0454C85.3658 23.0454 87.0956 21.6615 87.0956 19.3386C87.145 17.164 85.5141 16.1261 82.8946 15.4342Z" fill="#0C0A09"/>
<path d="M99.6482 12.6692C98.808 11.1371 97.3253 10.2969 95.3484 10.2969C91.9382 10.2969 89.3682 13.0646 89.3682 16.7219C89.3682 20.3792 91.9382 23.147 95.3484 23.147C97.3748 23.147 98.808 22.3068 99.6482 20.7746V22.8504H101.922V10.544H99.6482V12.6692ZM95.7438 21.1206C93.322 21.1206 91.7405 19.2919 91.7405 16.7219C91.7405 14.1025 93.322 12.2738 95.7438 12.2738C98.1161 12.2738 99.6977 14.1025 99.6977 16.7219C99.6977 19.2919 98.1655 21.1206 95.7438 21.1206Z" fill="#0C0A09"/>
<path d="M124.163 10.5387V12.6145C123.323 11.0824 121.84 10.2422 119.863 10.2422C116.453 10.2422 113.883 13.0099 113.883 16.6672C113.883 20.3246 116.453 23.0923 119.863 23.0923C121.889 23.0923 123.323 22.2521 124.163 20.7199V22.7957H126.436V10.5387H124.163ZM120.308 21.1153C117.886 21.1153 116.305 19.2867 116.305 16.7167C116.305 14.0972 117.886 12.2685 120.308 12.2685C122.68 12.2685 124.262 14.0972 124.262 16.7167C124.262 19.2867 122.68 21.1153 120.308 21.1153Z" fill="#0C0A09"/>
<path d="M111.511 10.2422L107.953 13.4053V10.5387H105.729V22.7957H107.953V16.4201L112.994 11.972L111.511 10.2422Z" fill="#0C0A09"/>
<path d="M13.6027 4.01953C13.0591 4.01953 12.466 4.11838 11.8729 4.31607C11.6258 4.41492 11.3292 4.41492 11.0821 4.31607C10.489 4.11838 9.94538 4.01953 9.3523 4.01953C6.09036 4.01953 3.37207 7.28147 3.37207 11.0871C3.37207 15.3375 6.63401 19.1431 11.3292 20.2798C11.4281 20.2798 11.5269 20.2798 11.6258 20.2798C16.321 19.1431 19.5829 15.3869 19.5829 11.0871C19.5829 7.23205 16.8152 4.01953 13.6027 4.01953ZM17.3589 10.6917C17.1118 11.2848 16.7164 11.7296 16.1727 12.0261C15.7279 12.3227 15.1843 12.4709 14.6406 12.4709C14.3935 12.4709 14.1958 12.2732 14.1958 12.0755C14.1958 11.8284 14.3935 11.6307 14.5912 11.6307C14.9866 11.6307 15.3325 11.4825 15.6785 11.2848C16.0739 11.0377 16.321 10.7411 16.5187 10.2963C16.6175 10.0492 16.6175 9.75264 16.4693 9.55495C16.321 9.30783 16.0739 9.20899 15.8268 9.15956C15.2337 9.11014 14.7889 9.30783 14.3935 9.6538C13.8004 10.2469 13.5533 11.3342 13.4544 11.779C13.3556 12.1744 12.3671 16.3754 11.9717 18.1052C11.9223 18.3523 11.6752 18.55 11.3787 18.55C11.0821 18.55 10.8844 18.3523 10.7856 18.1052L10.6373 17.4627C10.1925 15.5352 9.3523 12.125 9.30288 11.779C9.20403 11.3342 8.95691 10.2469 8.36383 9.6538C8.01787 9.30783 7.52363 9.11014 6.93055 9.15956C6.68344 9.15956 6.43632 9.30783 6.28805 9.55495C6.13978 9.80207 6.13978 10.0492 6.23863 10.2963C6.43632 10.6917 6.73286 11.0377 7.07882 11.2848C7.42479 11.4825 7.77075 11.5813 8.16614 11.6307C8.41325 11.6307 8.56153 11.8284 8.56153 12.0755C8.56153 12.3227 8.36383 12.4709 8.11671 12.4709C7.57306 12.4709 7.07882 12.2732 6.58459 12.0261C6.09036 11.6802 5.69497 11.2353 5.39843 10.6917C5.20073 10.1975 5.20074 9.60437 5.49728 9.15956C5.79382 8.71475 6.28805 8.41821 6.78228 8.36879C7.57306 8.31937 8.31441 8.56648 8.85807 9.11014C9.64884 9.90091 9.89596 11.1365 10.0442 11.6307C10.1431 11.9767 10.835 14.9421 11.2798 16.919C11.7246 14.9421 12.466 11.9767 12.5154 11.6307C12.6142 11.0871 12.9108 9.85149 13.7016 9.11014C14.2452 8.56648 14.9371 8.31937 15.7773 8.36879C16.321 8.41821 16.8152 8.71475 17.0623 9.15956C17.5566 9.60437 17.5566 10.1975 17.3589 10.6917Z" fill="#0C0A09"/>
<path d="M11.4778 1C5.69522 1 1 5.69522 1 11.4778V20.5222C1 26.3048 5.69522 31 11.4778 31C17.2603 31 21.9555 26.3048 21.9555 20.5222V11.4778C21.9555 5.69522 17.2603 1 11.4778 1ZM3.86656 22.598C3.86656 22.8451 3.66886 23.0428 3.42175 23.0428C3.17463 23.0428 2.97694 22.8451 2.97694 22.598V22.0049C2.97694 21.7578 3.17463 21.5601 3.42175 21.5601C3.66886 21.5601 3.86656 21.7578 3.86656 22.0049V22.598ZM3.86656 19.9292C3.86656 20.1763 3.66886 20.374 3.42175 20.374C3.17463 20.374 2.97694 20.1763 2.97694 19.9292V19.3361C2.97694 19.089 3.17463 18.8913 3.42175 18.8913C3.66886 18.8913 3.86656 19.089 3.86656 19.3361V19.9292ZM6.53542 26.6013C6.53542 26.8484 6.33773 27.0461 6.09061 27.0461C5.84349 27.0461 5.6458 26.8484 5.6458 26.6013V26.0082C5.6458 25.7611 5.84349 25.5634 6.09061 25.5634C6.33773 25.5634 6.53542 25.7611 6.53542 26.0082V26.6013ZM6.53542 23.9325C6.53542 24.1796 6.33773 24.3773 6.09061 24.3773C5.84349 24.3773 5.6458 24.1796 5.6458 23.9325V23.3394C5.6458 23.0923 5.84349 22.8946 6.09061 22.8946C6.33773 22.8946 6.53542 23.0923 6.53542 23.3394V23.9325ZM9.20428 27.9357C9.20428 28.1829 9.00659 28.3806 8.75947 28.3806C8.51236 28.3806 8.31466 28.1829 8.31466 27.9357V27.3427C8.31466 27.0956 8.51236 26.8979 8.75947 26.8979C9.00659 26.8979 9.20428 27.0956 9.20428 27.3427V27.9357ZM9.20428 25.2669C9.20428 25.514 9.00659 25.7117 8.75947 25.7117C8.51236 25.7117 8.31466 25.514 8.31466 25.2669V24.6738C8.31466 24.4267 8.51236 24.229 8.75947 24.229C9.00659 24.229 9.20428 24.4267 9.20428 24.6738V25.2669ZM11.8731 26.6013C11.8731 26.8484 11.6755 27.0461 11.4283 27.0461C11.1812 27.0461 10.9835 26.8484 10.9835 26.6013V26.0082C10.9835 25.7611 11.1812 25.5634 11.4283 25.5634C11.6755 25.5634 11.8731 25.7611 11.8731 26.0082V26.6013ZM11.8731 23.9325C11.8731 24.1796 11.6755 24.3773 11.4283 24.3773C11.1812 24.3773 10.9835 24.1796 10.9835 23.9325V23.3394C10.9835 23.0923 11.1812 22.8946 11.4283 22.8946C11.6755 22.8946 11.8731 23.0923 11.8731 23.3394V23.9325ZM14.5914 27.9357C14.5914 28.1829 14.3937 28.3806 14.1466 28.3806C13.8995 28.3806 13.7018 28.1829 13.7018 27.9357V27.3427C13.7018 27.0956 13.8995 26.8979 14.1466 26.8979C14.3937 26.8979 14.5914 27.0956 14.5914 27.3427V27.9357ZM14.5914 25.2669C14.5914 25.514 14.3937 25.7117 14.1466 25.7117C13.8995 25.7117 13.7018 25.514 13.7018 25.2669V24.6738C13.7018 24.4267 13.8995 24.229 14.1466 24.229C14.3937 24.229 14.5914 24.4267 14.5914 24.6738V25.2669ZM17.2603 26.6013C17.2603 26.8484 17.0626 27.0461 16.8155 27.0461C16.5684 27.0461 16.3707 26.8484 16.3707 26.6013V26.0082C16.3707 25.7611 16.5684 25.5634 16.8155 25.5634C17.0626 25.5634 17.2603 25.7611 17.2603 26.0082V26.6013ZM17.2603 23.9325C17.2603 24.1796 17.0626 24.3773 16.8155 24.3773C16.5684 24.3773 16.3707 24.1796 16.3707 23.9325V23.3394C16.3707 23.0923 16.5684 22.8946 16.8155 22.8946C17.0626 22.8946 17.2603 23.0923 17.2603 23.3394V23.9325ZM19.9292 22.598C19.9292 22.8451 19.7315 23.0428 19.4843 23.0428C19.2372 23.0428 19.0395 22.8451 19.0395 22.598V22.0049C19.0395 21.7578 19.2372 21.5601 19.4843 21.5601C19.7315 21.5601 19.9292 21.7578 19.9292 22.0049V22.598ZM19.9292 19.9292C19.9292 20.1763 19.7315 20.374 19.4843 20.374C19.2372 20.374 19.0395 20.1763 19.0395 19.9292V19.3361C19.0395 19.089 19.2372 18.8913 19.4843 18.8913C19.7315 18.8913 19.9292 19.089 19.9292 19.3361V19.9292ZM11.8237 21.0659C11.7249 21.1153 11.5766 21.1153 11.4778 21.1153C11.3789 21.1153 11.2306 21.1153 11.1318 21.0659C6.09061 19.8797 2.53213 15.7776 2.53213 11.0824C2.53213 6.78254 5.6458 3.17463 9.35255 3.17463C9.99506 3.17463 10.687 3.27348 11.3295 3.52059C11.4283 3.57002 11.5272 3.57002 11.5766 3.52059C12.2191 3.3229 12.911 3.17463 13.5535 3.17463C17.2603 3.17463 20.374 6.78254 20.374 11.0824C20.4234 15.7776 16.8649 19.8797 11.8237 21.0659Z" fill="#0C0A09"/>
</svg>
