<svg width="76" height="32" viewBox="0 0 76 32" fill="none" xmlns="http://www.w3.org/2000/svg">
<path d="M55.8838 2.39434V23.6025C55.8838 24.3494 55.2534 24.9617 54.4842 24.9617C53.715 24.9617 53.0846 24.3494 53.0846 23.6025V2.39434C53.0846 1.6474 53.715 1.03516 54.4842 1.03516C55.2534 1.03516 55.8838 1.63516 55.8838 2.39434ZM67.7365 8.6025C63.0963 8.6025 59.3135 12.276 59.3135 16.7821C59.3135 21.2882 63.0963 24.9617 67.7365 24.9617C70.2457 24.9617 72.6415 23.9821 74.3311 22.2678C74.8607 21.729 74.8481 20.8596 74.2807 20.3454C73.7258 19.8311 72.8306 19.8433 72.301 20.3943C71.141 21.5698 69.4765 22.2433 67.7365 22.2433C64.6346 22.2433 62.1254 19.7943 62.1254 16.7943C62.1254 13.7943 64.6472 11.3454 67.7365 11.3454C70.1448 11.3454 72.1749 12.9617 72.7297 15.129H65.8577C65.0885 15.129 64.4581 15.7413 64.4581 16.4882C64.4581 17.2352 65.0885 17.8474 65.8577 17.8474H74.2807C75.0498 17.8474 75.6803 17.2352 75.6803 16.4882V16.3413C75.6929 12.0678 72.1245 8.6025 67.7365 8.6025ZM7.45185 15.4474C3.6943 14.8841 3.03862 14.4188 3.03862 13.3658C3.03862 12.3494 4.41303 11.3209 7.03574 11.3209C8.32188 11.3209 10.1754 11.578 11.6633 12.7658C12.256 13.2433 13.1512 13.1576 13.643 12.5821C14.1347 11.9943 14.0465 11.1372 13.4538 10.6596C11.3103 8.9576 8.78842 8.59026 7.03574 8.59026C2.35773 8.59026 0.22677 11.0637 0.22677 13.3658C0.22677 14.5413 0.668092 16.1576 2.78644 17.125C4.02214 17.6882 5.54786 17.9209 7.02313 18.1413C10.7555 18.6923 11.4111 19.1576 11.4111 20.1862C11.4111 21.4107 9.83499 22.2311 7.48967 22.2311C5.00566 22.2311 3.11428 21.2515 2.20642 20.6637C1.56335 20.2474 0.693311 20.4188 0.264598 21.0433C-0.164115 21.6678 0.0124136 22.5127 0.655483 22.929C2.67296 24.227 5.10653 24.9494 7.48967 24.9494C12.1425 24.9494 14.223 22.5494 14.223 20.1739C14.223 16.4515 10.3141 15.876 7.45185 15.4474ZM24.5247 11.3331C26.2522 11.3331 27.8535 12.1658 28.8118 13.5739C29.2406 14.1984 30.1106 14.3698 30.7537 13.9535C31.3967 13.5372 31.5733 12.6923 31.1446 12.0678C29.6693 9.90046 27.1853 8.61475 24.5121 8.61475C19.8719 8.61475 16.0892 12.2882 16.0892 16.7943C16.0892 21.3005 19.8719 24.9739 24.5121 24.9739C27.1853 24.9739 29.6567 23.676 31.1446 21.5209C31.5733 20.8964 31.3967 20.0515 30.7537 19.6352C30.1106 19.2188 29.2406 19.3903 28.8118 20.0147C27.8535 21.4107 26.2522 22.2556 24.5247 22.2556C21.4229 22.2556 18.9136 19.8066 18.9136 16.8066C18.9136 13.8066 21.4229 11.3331 24.5247 11.3331ZM41.6859 8.6025C37.0457 8.6025 33.2629 12.276 33.2629 16.7821C33.2629 21.2882 37.0457 24.9617 41.6859 24.9617H42.6189C43.3881 24.9617 44.0186 24.3494 44.0186 23.6025C44.0186 22.8556 43.3881 22.2433 42.6189 22.2433H41.6859C38.584 22.2433 36.0748 19.7943 36.0748 16.7943C36.0748 13.7943 38.5966 11.3454 41.6859 11.3454C44.5229 11.3454 46.8304 13.5862 46.8304 16.3413V23.6147C46.8304 24.3617 47.4609 24.9739 48.23 24.9739C48.9992 24.9739 49.6297 24.3617 49.6297 23.6147V16.3413C49.6423 12.0678 46.0739 8.6025 41.6859 8.6025Z" fill="#0C0A09"/>
</svg>
