<svg width="76" height="32" viewBox="0 0 76 32" fill="none" xmlns="http://www.w3.org/2000/svg">
<path d="M55.8838 1.39434V22.6025C55.8838 23.3494 55.2534 23.9617 54.4842 23.9617C53.715 23.9617 53.0846 23.3494 53.0846 22.6025V1.39434C53.0846 0.6474 53.715 0.0351562 54.4842 0.0351562C55.2534 0.0351562 55.8838 0.635155 55.8838 1.39434ZM67.7365 7.6025C63.0963 7.6025 59.3135 11.276 59.3135 15.7821C59.3135 20.2882 63.0963 23.9617 67.7365 23.9617C70.2457 23.9617 72.6415 22.9821 74.3311 21.2678C74.8607 20.729 74.8481 19.8596 74.2807 19.3454C73.7258 18.8311 72.8306 18.8433 72.301 19.3943C71.141 20.5698 69.4765 21.2433 67.7365 21.2433C64.6346 21.2433 62.1254 18.7943 62.1254 15.7943C62.1254 12.7943 64.6472 10.3454 67.7365 10.3454C70.1448 10.3454 72.1749 11.9617 72.7297 14.129H65.8577C65.0885 14.129 64.4581 14.7413 64.4581 15.4882C64.4581 16.2352 65.0885 16.8474 65.8577 16.8474H74.2807C75.0498 16.8474 75.6803 16.2352 75.6803 15.4882V15.3413C75.6929 11.0678 72.1245 7.6025 67.7365 7.6025ZM7.45185 14.4474C3.6943 13.8841 3.03862 13.4188 3.03862 12.3658C3.03862 11.3494 4.41303 10.3209 7.03574 10.3209C8.32188 10.3209 10.1754 10.578 11.6633 11.7658C12.256 12.2433 13.1512 12.1576 13.643 11.5821C14.1347 10.9943 14.0465 10.1372 13.4538 9.65965C11.3103 7.9576 8.78842 7.59026 7.03574 7.59026C2.35773 7.59026 0.22677 10.0637 0.22677 12.3658C0.22677 13.5413 0.668092 15.1576 2.78644 16.125C4.02214 16.6882 5.54786 16.9209 7.02313 17.1413C10.7555 17.6923 11.4111 18.1576 11.4111 19.1862C11.4111 20.4107 9.83499 21.2311 7.48967 21.2311C5.00566 21.2311 3.11428 20.2515 2.20642 19.6637C1.56335 19.2474 0.693311 19.4188 0.264598 20.0433C-0.164115 20.6678 0.0124136 21.5127 0.655483 21.929C2.67296 23.227 5.10653 23.9494 7.48967 23.9494C12.1425 23.9494 14.223 21.5494 14.223 19.1739C14.223 15.4515 10.3141 14.876 7.45185 14.4474ZM24.5247 10.3331C26.2522 10.3331 27.8535 11.1658 28.8118 12.5739C29.2406 13.1984 30.1106 13.3698 30.7537 12.9535C31.3967 12.5372 31.5733 11.6923 31.1446 11.0678C29.6693 8.90046 27.1853 7.61475 24.5121 7.61475C19.8719 7.61475 16.0892 11.2882 16.0892 15.7943C16.0892 20.3005 19.8719 23.9739 24.5121 23.9739C27.1853 23.9739 29.6567 22.676 31.1446 20.5209C31.5733 19.8964 31.3967 19.0515 30.7537 18.6352C30.1106 18.2188 29.2406 18.3903 28.8118 19.0147C27.8535 20.4107 26.2522 21.2556 24.5247 21.2556C21.4229 21.2556 18.9136 18.8066 18.9136 15.8066C18.9136 12.8066 21.4229 10.3331 24.5247 10.3331ZM41.6859 7.6025C37.0457 7.6025 33.2629 11.276 33.2629 15.7821C33.2629 20.2882 37.0457 23.9617 41.6859 23.9617H42.6189C43.3881 23.9617 44.0186 23.3494 44.0186 22.6025C44.0186 21.8556 43.3881 21.2433 42.6189 21.2433H41.6859C38.584 21.2433 36.0748 18.7943 36.0748 15.7943C36.0748 12.7943 38.5966 10.3454 41.6859 10.3454C44.5229 10.3454 46.8304 12.5862 46.8304 15.3413V22.6147C46.8304 23.3617 47.4609 23.9739 48.23 23.9739C48.9992 23.9739 49.6297 23.3617 49.6297 22.6147V15.3413C49.6423 11.0678 46.0739 7.6025 41.6859 7.6025Z" fill="#0C0A09"/>
</svg>
