<svg width="68" height="24" viewBox="0 0 68 24" fill="none" xmlns="http://www.w3.org/2000/svg">
<g clip-path="url(#clip0_456_1524)">
<path d="M3.87687 17.1401C4.16163 17.9153 4.55587 18.5781 5.05967 19.1286C5.56347 19.6791 6.16033 20.1004 6.85024 20.3925C7.54022 20.6846 8.29039 20.8306 9.10084 20.8306C9.8894 20.8306 10.6286 20.6789 11.3186 20.3755C12.0086 20.0722 12.6109 19.6453 13.1256 19.0949C13.6403 18.5443 14.04 17.8872 14.3248 17.1232C14.6096 16.3593 14.7519 15.5055 14.7519 14.5618V0.00195312H18.2017V23.5942H14.7848V21.4035C14.0182 22.2348 13.1146 22.8752 12.0742 23.3246C11.0337 23.7739 9.91128 23.9986 8.70659 23.9986C7.47995 23.9986 6.33553 23.7795 5.27319 23.3414C4.21092 22.9033 3.29092 22.2798 2.51341 21.4709C1.7359 20.662 1.12254 19.6903 0.673552 18.5556C0.224493 17.4209 0 16.1571 0 14.764V0.00195312H3.44976V14.5618C3.44976 15.5055 3.59211 16.3649 3.87687 17.1401ZM24.1481 0.00195312V8.59626C24.9147 7.80986 25.8019 7.18641 26.8094 6.72576C27.8169 6.2651 28.9121 6.03481 30.0949 6.03481C31.3215 6.03481 32.4713 6.2707 33.5446 6.74254C34.6179 7.21438 35.5487 7.85476 36.3373 8.66368C37.1258 9.4726 37.7501 10.4275 38.2101 11.5284C38.67 12.6295 38.9 13.7978 38.9 15.0336C38.9 16.2693 38.67 17.4321 38.2101 18.5218C37.7501 19.6116 37.1258 20.5609 36.3373 21.3697C35.5487 22.1786 34.6179 22.819 33.5446 23.2908C32.4713 23.7627 31.3214 23.9986 30.0949 23.9986C28.9121 23.9986 27.8115 23.7683 26.793 23.3076C25.7745 22.847 24.8819 22.2235 24.1153 21.4371V23.5941H20.8298V0.00195312H24.1481ZM24.5259 17.3591C24.8216 18.0782 25.2323 18.7073 25.758 19.2465C26.2837 19.7858 26.897 20.2127 27.5979 20.5273C28.2988 20.8419 29.0545 20.9991 29.8649 20.9991C30.6535 20.9991 31.3981 20.8419 32.099 20.5273C32.7999 20.2127 33.4077 19.7859 33.9225 19.2465C34.4372 18.7074 34.8479 18.0782 35.1545 17.3591C35.4612 16.6401 35.6145 15.865 35.6145 15.0336C35.6145 14.2023 35.4612 13.4214 35.1545 12.6912C34.8479 11.961 34.4372 11.3262 33.9225 10.787C33.4077 10.2478 32.8 9.82646 32.099 9.52316C31.3981 9.21986 30.6534 9.0681 29.8649 9.0681C29.0764 9.0681 28.3317 9.21979 27.6308 9.52316C26.9299 9.82653 26.3166 10.2478 25.7909 10.787C25.2653 11.3262 24.8491 11.961 24.5424 12.6912C24.2358 13.4214 24.0825 14.2023 24.0825 15.0336C24.0824 15.865 24.2303 16.6401 24.5259 17.3591ZM40.7724 11.5622C41.2104 10.4837 41.8128 9.53442 42.5794 8.71431C43.3459 7.89421 44.255 7.24823 45.3064 6.77639C46.3577 6.30455 47.4967 6.06867 48.7233 6.06867C49.928 6.06867 51.0451 6.29337 52.0745 6.74269C53.1039 7.19208 53.991 7.8156 54.7357 8.61326C55.4805 9.41085 56.061 10.3546 56.477 11.4443C56.8932 12.5341 57.1013 13.7193 57.1013 15.0001V16.1123H43.4665C43.5761 16.8088 43.7951 17.4548 44.1236 18.0501C44.4522 18.6455 44.8628 19.1623 45.3557 19.6005C45.8485 20.0387 46.407 20.3814 47.0313 20.6284C47.6556 20.8756 48.3181 20.9992 49.019 20.9992C51.0123 20.9992 52.6222 20.1566 53.8487 18.4714L56.2471 20.2913C55.4148 21.4373 54.3854 22.3361 53.1588 22.9876C51.9322 23.6392 50.5523 23.965 49.0191 23.965C47.7706 23.965 46.6043 23.7402 45.52 23.2909C44.4358 22.8416 43.494 22.2124 42.6945 21.4035C41.8951 20.5946 41.2654 19.6453 40.8054 18.5556C40.3454 17.4659 40.1154 16.2806 40.1154 14.9999C40.1153 13.7866 40.3344 12.6407 40.7724 11.5622ZM45.3885 10.2309C44.4576 11.0285 43.8389 12.0902 43.5322 13.4159H53.7502C53.4654 12.0902 52.8576 11.0285 51.9267 10.2309C50.9958 9.4333 49.9061 9.03447 48.6576 9.03447C47.4091 9.03447 46.3194 9.4333 45.3885 10.2309ZM63.3107 10.6184C62.6098 11.4048 62.2593 12.4721 62.2593 13.8203V23.5943H58.9409V6.4056H62.2264V8.52892C62.6426 7.83238 63.1847 7.28187 63.8527 6.87744C64.5207 6.47295 65.3148 6.2707 66.2348 6.2707H67.3846V9.43881H66.0047C64.9096 9.43889 64.0116 9.83205 63.3107 10.6184Z" fill="#1C1917"/>
</g>
<defs>
<clipPath id="clip0_456_1524">
<rect width="67.3846" height="24" fill="white"/>
</clipPath>
</defs>
</svg>
