<svg width="127" height="32" viewBox="0 0 127 32" fill="none" xmlns="http://www.w3.org/2000/svg">
<path d="M10.7104 13.817C11.2817 14.8708 9.99638 15.1718 9.42513 15.2471C8.56826 15.3224 8.35404 14.7955 8.49685 14.1181C8.56826 13.8923 8.71107 13.6665 8.85388 13.5159C8.99669 13.3654 9.28232 13.2148 9.49653 13.2148C9.71075 13.2148 9.99638 13.2148 10.1392 13.3654C10.4248 13.4407 10.5676 13.5912 10.7104 13.817Z" fill="#0C0A09"/>
<path d="M14.1384 11.9336C13.4957 17.2025 22.2073 16.0734 22.0645 20.2132C22.9213 19.0089 23.2784 15.8476 20.7791 14.1917C18.4942 12.6863 15.5665 13.5143 14.1384 11.9336Z" fill="#0C0A09"/>
<path d="M19.2073 9.90054C19.1359 9.82527 19.0645 9.82527 19.0645 9.75C19.0645 9.82527 19.1359 9.90054 19.2073 9.90054Z" fill="#0C0A09"/>
<path d="M21.2069 13.745C21.1355 13.5945 21.0641 13.444 20.9213 13.2934C20.6357 12.8418 20.2072 12.5407 19.7074 12.4655C19.4218 12.3902 19.0647 12.3149 18.7077 12.3149C18.3507 12.3149 18.065 12.2396 17.708 12.2396C16.994 12.1644 16.3513 12.0891 15.6372 11.9386C15.4944 11.8633 15.2802 11.8633 15.1374 11.788C15.066 11.788 14.9946 11.7128 14.8518 11.7128C14.7804 11.6375 14.709 11.6375 14.5662 11.5622C14.2091 11.4117 13.9235 11.1106 13.7093 10.8848C13.2094 10.3579 12.781 9.75576 12.3526 9.22887C11.9241 8.62672 11.5671 8.09983 11.0673 7.57295C10.6388 7.04606 10.0676 6.59444 9.49632 6.29336C8.92507 5.99229 8.21101 5.76648 7.56836 5.69121C8.28242 5.61594 8.99648 5.69121 9.63913 5.99229C10.2818 6.29337 10.9244 6.66971 11.4243 7.1966C11.7813 7.49768 12.0669 7.87402 12.3526 8.25037C14.5662 7.79875 16.2799 8.1751 17.6366 9.00306C18.065 9.22887 18.4935 9.52995 18.8505 9.90629C18.9219 9.98156 18.9933 9.98156 18.9933 10.0568C19.279 10.3579 19.5646 10.659 19.7788 10.9601C20.7785 11.9386 21.2069 13.0676 21.2069 13.745Z" fill="#0C0A09"/>
<path d="M7.78527 6.29297C8.35652 6.36824 8.92777 6.59405 9.2848 7.04566C9.64183 7.49728 9.78464 8.09944 9.92745 8.62632C9.99886 9.07794 10.0703 9.52955 10.2131 9.9059C10.2845 10.1317 10.4273 10.2822 10.4987 10.4328C10.5701 10.5833 10.7129 10.7339 10.7843 10.8844V10.9597V11.0349C10.5701 11.2607 10.0703 11.0349 9.85605 10.8844C9.49902 10.7339 9.21339 10.4328 8.92777 10.1317C8.1423 9.22848 7.71387 7.87363 7.71387 6.66932C7.71387 6.59405 7.78527 6.44351 7.78527 6.29297Z" fill="#0C0A09"/>
<path d="M17.0668 16.832C15.8529 20.3697 21.3511 22.7783 19.2804 26.3912C21.3511 25.488 22.3508 22.703 21.4939 20.5202C20.7799 18.5632 18.4949 17.8105 17.0668 16.832Z" fill="#0C0A09"/>
<path d="M9.85449 21.4194C10.2115 21.1936 10.5686 20.9678 10.9256 20.742C11.2826 20.5914 11.711 20.4409 12.1395 20.3656C12.925 20.2151 13.7818 20.1398 14.4245 19.8387C14.7815 19.6882 15.0671 19.5377 15.3528 19.2366C15.6384 19.0108 15.7812 18.7097 15.924 18.3334C16.0668 17.957 16.0668 17.5807 16.0668 17.2043C16.0668 16.7527 15.924 16.3763 15.7812 16C16.0668 16.3011 16.281 16.7527 16.4238 17.2043C16.5667 17.6559 16.5667 18.1075 16.4953 18.5592C16.4238 19.0108 16.1382 19.4624 15.8526 19.8387C15.567 20.1398 15.1385 20.4409 14.7101 20.5914C14.2817 20.742 13.8532 20.8172 13.4248 20.8925C12.9964 20.8925 12.6393 20.9678 12.2109 20.9678C11.4254 20.9678 10.64 21.1183 9.85449 21.4194Z" fill="#0C0A09"/>
<path d="M17.5662 27.6675C17.4234 27.7428 17.352 27.8933 17.2092 27.9686C17.0664 28.0439 16.9236 28.1192 16.7807 28.1944C16.4951 28.345 16.1381 28.4202 15.7811 28.4202C14.8528 28.4202 14.2101 27.6675 13.8531 26.8396C13.5675 26.3127 13.4247 25.7105 13.139 25.1836C12.7106 24.431 11.9251 23.8288 11.0683 23.9041C10.7112 23.9793 10.3542 24.1299 10.2114 24.431C9.71155 25.2589 10.4256 26.4632 11.4253 26.3127C11.4967 26.3127 11.5681 26.3127 11.6395 26.2374C11.7109 26.2374 11.7823 26.1621 11.8537 26.0869C11.9965 25.9363 12.068 25.7858 12.1394 25.6353C12.2108 25.4847 12.2108 25.2589 12.2108 25.0331C12.1394 24.8073 12.068 24.6568 11.9251 24.5815C12.1394 24.6568 12.2822 24.8073 12.3536 25.0331C12.2822 25.4095 12.2822 25.6353 12.2822 25.8611C12.2108 26.0869 12.1394 26.3127 11.9965 26.4632C11.9251 26.5385 11.8537 26.6138 11.7109 26.689C11.6395 26.7643 11.4967 26.8396 11.4253 26.8396C11.2111 26.9148 10.9969 26.9148 10.7826 26.9148C10.497 26.8396 10.14 26.7643 9.92577 26.5385C9.64015 26.3127 9.42593 25.9363 9.1403 25.7105C8.85468 25.3342 8.49765 25.1084 8.06921 24.8826C7.78359 24.732 7.49796 24.6568 7.21234 24.5815C7.06953 24.5815 6.92672 24.5062 6.7839 24.5062C6.7125 24.5062 6.35547 24.431 6.35547 24.431C6.85531 23.9793 7.35515 23.603 7.85499 23.2266C8.42624 22.8503 8.99749 22.6245 9.64015 22.3987C10.2828 22.1729 10.9255 22.1729 11.6395 22.2481C11.9965 22.3234 12.2822 22.3987 12.6392 22.5492C12.9962 22.6998 13.2819 22.9256 13.5675 23.1514C13.8531 23.4525 14.0673 23.7535 14.2101 24.0546C14.3529 24.3557 14.4243 24.732 14.4958 25.1084C14.71 26.1622 14.6386 27.8181 15.9239 28.0439C15.9953 28.0439 16.0667 28.0439 16.1381 28.0439H16.3523C16.4951 28.0439 16.6379 28.0439 16.7807 27.9686C16.995 27.9686 17.2806 27.8181 17.5662 27.6675Z" fill="#0C0A09"/>
<path d="M8.78294 11.637C8.71154 11.8628 8.64013 12.0134 8.56873 12.1639C8.35451 12.465 8.06888 12.6908 7.78326 12.8413C7.49764 12.9919 7.21201 13.0671 6.85498 13.0671C6.78357 13.0671 6.71217 13.0671 6.64076 13.0671C6.42654 13.0671 6.28373 13.1424 6.06951 13.2929C5.9267 13.4435 5.78389 13.594 5.78389 13.8198C5.78389 13.8951 5.71248 14.0456 5.71248 14.1209C5.71248 14.422 5.64108 14.6478 5.64108 15.0241C5.56967 15.6263 5.42686 16.1532 5.21264 16.6801C4.92702 17.3575 4.56999 17.9596 4.64139 18.7123C4.7128 19.2392 4.92702 19.6156 5.28405 19.9166C5.8553 20.5941 7.21201 20.8951 6.92639 22.4758C6.71217 23.4543 5.21264 24.4328 3.14187 24.8092C3.35608 24.8092 2.85624 23.9059 2.85624 23.8307C2.64202 23.4543 2.3564 23.078 2.21359 22.7016C1.85656 21.9489 1.71374 20.9704 1.85656 20.1425C1.99937 19.2392 2.64202 18.5618 3.14187 17.8091C3.78452 16.9811 4.42718 15.9274 4.56999 14.7983C4.56999 14.5725 4.64139 14.1962 4.7128 13.8951C4.7842 13.5187 4.85561 13.2177 4.99842 12.8413C5.06983 12.6155 5.21264 12.465 5.42686 12.2392C5.49827 12.1639 5.56967 12.0134 5.56967 11.9381C5.56967 11.7876 5.56967 11.7123 5.49827 11.5617L2.14218 5.16385L6.99779 11.4865C7.0692 11.5617 7.1406 11.637 7.21201 11.637C7.28342 11.7123 7.35482 11.7123 7.49763 11.7123C7.56904 11.7123 7.64045 11.7123 7.78326 11.637C7.85467 11.5617 7.92607 11.5617 7.99748 11.4865C8.06888 11.4112 8.06888 11.3359 8.06888 11.1854C8.06888 11.1101 8.06888 10.9596 7.99748 10.8843C7.71185 10.4327 7.35482 10.0564 6.99779 9.60474L5.78389 8.02408L3.35608 4.86277L0 0.421875L3.64171 4.56169L6.21233 7.57247L7.49763 9.07785C7.92607 9.60474 8.35451 10.0564 8.78294 10.6585L8.85435 10.7338V10.8843C8.85435 11.1854 8.85435 11.4112 8.78294 11.637Z" fill="#0C0A09"/>
<path d="M9.92586 26.4626C9.71164 26.2368 9.49742 26.011 9.2832 25.7852C9.49742 26.0862 9.64023 26.312 9.92586 26.4626Z" fill="#0C0A09"/>
<path fill-rule="evenodd" clip-rule="evenodd" d="M72.835 9.44884C70.4786 10.051 69.4075 12.008 70.0502 14.3414C70.3358 15.3199 71.1927 16.3736 72.478 17.1263C74.6916 18.4812 75.4056 19.0081 75.7627 19.836C76.0483 20.5134 76.1197 20.7392 75.9769 21.4167C75.6199 22.9221 74.6202 23.6748 73.192 23.6748C71.7639 23.6748 70.7642 22.8468 70.4786 21.4167C70.4072 20.8145 70.2644 20.664 70.0502 20.664C69.7646 20.664 69.6932 20.8145 69.6932 22.2446V23.8253L70.6214 24.1264C72.121 24.6533 74.1917 24.578 75.4056 23.9758C77.8334 22.7715 78.7617 20.4382 77.6906 18.2554C77.2622 17.4274 76.2625 16.5242 74.5488 15.3951C72.6922 14.1908 71.9067 13.3628 71.7639 12.5349C71.5497 11.18 72.6922 10.1263 74.2631 10.1263C75.477 10.1263 75.9769 10.4273 76.4053 11.4058C76.6909 12.008 76.8338 12.2338 77.1908 12.2338C77.5478 12.2338 77.6192 12.1585 77.4764 11.7822C77.405 11.5564 77.3336 10.9542 77.3336 10.5026C77.3336 9.90046 77.2622 9.59938 77.048 9.52411C76.5481 9.2983 73.4777 9.22303 72.835 9.44884ZM25.707 9.97573C25.707 10.2768 25.8498 10.3521 26.1355 10.3521C26.9923 10.3521 27.0637 10.5779 27.1352 16.0725C27.2066 20.8145 27.278 21.1909 27.635 21.9436C28.1348 22.9221 28.8489 23.5995 29.92 24.1264C30.634 24.5027 31.1339 24.578 32.6334 24.578C34.2044 24.578 34.5614 24.5027 35.4183 24.0511C35.9895 23.75 36.7036 23.2231 36.9892 22.8468C37.9889 21.5672 38.1317 20.8898 38.2031 15.6209C38.3459 10.5026 38.3459 10.4273 39.1314 10.4273C39.3456 10.4273 39.417 10.2768 39.417 10.051C39.417 9.67465 39.2742 9.67465 37.2748 9.67465C35.2754 9.67465 35.1326 9.67465 35.1326 10.051C35.1326 10.3521 35.2754 10.4273 35.7039 10.5026C36.6322 10.5779 36.7036 10.9542 36.7036 15.6209C36.7036 20.3629 36.5607 21.2661 35.5611 22.2446C34.7042 23.1479 33.9901 23.4489 32.7762 23.4489C31.0625 23.4489 29.7772 22.621 29.4201 21.1156C29.2773 20.5887 29.2059 18.7822 29.2773 15.5457L29.3487 10.7284L29.9914 10.5026C30.3484 10.3521 30.634 10.1263 30.7055 9.97573C30.7769 9.67465 30.4912 9.67465 28.2777 9.67465C25.8498 9.59938 25.707 9.59938 25.707 9.97573ZM42.3446 9.97573C42.3446 10.2768 42.4875 10.3521 42.8445 10.3521C43.7728 10.3521 44.2726 10.7284 44.4868 11.5564C44.6296 12.008 44.6296 14.1908 44.6296 17.2769C44.5582 22.8468 44.4868 23.2231 43.4157 23.4489C43.0587 23.5242 42.9159 23.6748 42.9159 23.9006C42.9159 24.2016 43.0587 24.2769 45.4151 24.2769C47.7001 24.2769 47.9143 24.2769 47.9143 23.9758C47.9143 23.75 47.7001 23.5995 47.1288 23.4489C46.4148 23.2231 46.3434 23.1479 46.1292 22.5457C45.8435 21.6425 45.8435 13.137 46.0578 13.2123C46.1292 13.2123 46.8432 13.965 47.6287 14.9435C48.4142 15.922 50.4849 18.4059 52.3415 20.4382C55.1977 23.6748 55.6976 24.2769 56.126 24.2769H56.6258L56.6973 17.6532C56.7687 12.9112 56.8401 10.9542 56.9829 10.8037C57.1257 10.6532 57.4827 10.5026 57.7683 10.4273C58.1254 10.3521 58.3396 10.2015 58.3396 10.051C58.3396 9.82519 57.9112 9.74992 55.9118 9.74992C53.5554 9.67465 53.484 9.67465 53.484 10.051C53.484 10.3521 53.6268 10.4273 53.9124 10.4273C54.1266 10.4273 54.5551 10.6532 54.8407 10.879L55.3405 11.3306L55.4119 15.8467C55.4119 18.4059 55.4119 20.3629 55.3405 20.3629C55.2691 20.3629 54.6979 19.7607 54.1266 19.0833C53.5554 18.4059 51.913 16.4489 50.4849 14.793C49.0568 13.137 47.4859 11.3306 46.986 10.7284L46.1292 9.67465H44.2726C42.416 9.59938 42.3446 9.59938 42.3446 9.97573ZM61.053 9.97573C61.053 10.2768 61.1958 10.3521 61.5529 10.3521C61.8385 10.3521 62.1955 10.5026 62.4097 10.6532C62.7668 10.879 62.7668 11.2553 62.8382 16.4489C62.9096 22.9221 62.8382 23.2984 61.7671 23.4489C61.2672 23.5242 61.053 23.6748 61.053 23.9006C61.053 24.2016 61.2672 24.2769 63.7665 24.2769C66.3371 24.2769 66.4799 24.2769 66.4799 23.9006C66.4799 23.5995 66.3371 23.5242 66.0514 23.5242C65.8372 23.5242 65.4802 23.3737 65.266 23.2231C64.9089 22.9973 64.9089 22.621 64.8375 17.051C64.7661 11.3306 64.7661 11.1048 65.1232 10.7284C65.3374 10.5026 65.6944 10.3521 65.9086 10.3521C66.2657 10.3521 66.3371 10.2768 66.3371 9.97573C66.3371 9.59938 66.1943 9.59938 63.6236 9.59938C61.1958 9.59938 61.053 9.59938 61.053 9.97573ZM79.8328 9.97573C79.9042 10.2015 80.047 10.3521 80.3327 10.3521C80.5469 10.3521 80.9039 10.5779 81.1181 10.8037C81.3323 11.0295 82.5462 14.1155 83.903 17.8037L86.2594 24.3522L86.902 24.4274L87.5447 24.5027L89.187 19.836C90.1153 17.2769 90.9722 14.9435 91.0436 14.7177C91.2578 14.2661 91.2578 14.3414 91.829 15.8467C92.1146 16.75 92.9715 19.0081 93.6856 20.9651L94.9709 24.5027H95.5421C95.8278 24.5027 96.1134 24.4274 96.1848 24.2769C96.2562 24.1264 97.0417 21.9436 98.0414 19.3844C98.9696 16.8252 100.041 13.965 100.398 13.0618C101.183 10.9542 101.326 10.7284 101.897 10.5026C102.183 10.4273 102.397 10.2015 102.397 10.051C102.397 9.82519 102.04 9.74992 100.255 9.74992C98.2556 9.74992 98.1128 9.74992 98.1128 10.1263C98.1128 10.4273 98.2556 10.5026 98.5412 10.5026C99.2553 10.5026 99.5409 10.7284 99.5409 11.18C99.5409 11.5564 96.1134 21.2661 95.8992 21.4919C95.7564 21.6425 92.6859 12.6102 92.6145 11.7069C92.4717 10.879 92.8287 10.5026 93.6142 10.5026C93.8998 10.5026 94.0426 10.4273 94.0426 10.1263C94.0426 9.74992 93.8998 9.74992 91.2578 9.74992C88.6158 9.74992 88.4729 9.74992 88.4729 10.1263C88.4729 10.3521 88.6158 10.5026 88.7586 10.5026C89.3298 10.5026 90.0439 11.1048 90.2581 11.6317C90.5437 12.4596 90.3295 13.2876 88.6872 17.8037L87.3304 21.6425L87.0448 20.8898C86.902 20.5134 86.0451 18.1048 85.1883 15.6209C83.4745 10.7284 83.4745 10.5026 84.617 10.5026C85.0455 10.5026 85.1169 10.4273 85.1169 10.1263C85.1169 9.74992 84.974 9.74992 82.4748 9.74992C79.7614 9.59938 79.69 9.59938 79.8328 9.97573ZM115.964 10.1263C115.964 10.1263 115.964 10.3521 115.964 10.4273C115.964 10.5026 116.178 10.5026 116.178 10.5026C116.321 10.5026 116.393 10.5779 116.536 10.5779C117.107 10.7284 117.464 10.8037 117.607 11.18C117.678 11.4058 117.749 12.3091 117.749 17.051C117.749 22.0188 117.749 22.621 117.607 22.9221C117.464 23.2984 117.178 23.5242 116.464 23.75C116.464 23.75 116.178 23.8253 116.107 23.9006C116.036 23.9758 116.036 24.1264 116.036 24.1264C116.036 24.1264 116.036 24.2769 116.107 24.3522C116.178 24.4275 116.393 24.4274 116.393 24.4274H118.178H121.177C121.177 24.4274 121.32 24.4275 121.391 24.3522C121.463 24.2769 121.463 24.1264 121.463 24.1264C121.463 24.1264 121.463 23.9758 121.391 23.9006C121.32 23.8253 121.034 23.75 121.034 23.75C120.391 23.5995 120.034 23.3737 119.892 22.9973C119.749 22.6963 119.749 22.0188 119.749 20.4382V18.1801C119.82 18.2554 119.892 18.2554 119.963 18.3306C120.32 18.5564 120.748 18.9328 122.319 18.9328C124.247 19.0081 125.39 18.1048 126.104 17.051C126.818 15.9973 127.032 14.3414 126.532 12.5349C126.033 10.8037 124.533 9.67465 122.462 9.59938C121.391 9.52411 119.749 9.59938 118.892 9.67465H118.678C117.892 9.67465 116.893 9.82519 116.393 9.82519C116.25 9.82519 116.25 9.82519 116.178 9.90046C115.964 10.051 115.964 10.1263 115.964 10.1263ZM123.89 17.051C124.676 16.2984 124.676 15.094 124.676 14.2661C124.604 13.0618 124.105 10.7284 121.534 10.7284C120.891 10.7284 119.677 10.8037 119.606 11.7069C119.535 11.8575 119.535 12.9865 119.535 14.6424V17.3521L119.82 17.5027C119.963 17.5779 120.177 17.6532 120.463 17.7285C121.534 18.0296 123.105 17.8037 123.89 17.051ZM107.467 9.82519C107.681 9.74992 107.824 9.67465 107.824 9.67465C107.824 9.67465 108.11 9.52411 108.181 9.67465C108.181 9.74992 108.324 9.97573 108.609 10.7284C108.681 10.879 108.752 11.0295 108.752 11.18C109.109 12.2338 109.681 13.7392 109.966 14.5672C110.252 15.3951 110.823 16.9005 111.251 18.1048C111.68 19.2339 112.18 20.664 112.465 21.3414C112.68 22.0188 113.037 22.621 113.108 22.7715C113.179 22.8468 113.179 22.9221 113.251 22.9973C113.465 23.2984 113.679 23.75 114.179 23.8253C114.179 23.8253 114.536 23.9006 114.608 23.9758C114.679 24.0511 114.679 24.1264 114.679 24.1264V24.3522C114.679 24.3522 114.679 24.4274 114.608 24.4274C114.608 24.5027 114.465 24.4274 114.465 24.4274H111.466H109.324C109.324 24.4274 109.252 24.4274 109.181 24.4274C109.109 24.4274 109.109 24.2769 109.109 24.2769V24.1264C109.109 24.1264 109.109 23.9758 109.181 23.9006C109.252 23.8253 109.609 23.75 109.609 23.75C110.252 23.6748 110.537 23.1479 110.609 22.8468V22.7715C110.752 22.4704 110.68 22.2446 110.038 20.664C109.609 19.6102 109.466 19.3091 109.395 19.2339C109.324 19.2339 108.181 19.2339 106.967 19.2339H104.611L104.468 19.6102C104.039 20.8145 103.682 21.9436 103.682 22.2446C103.54 22.8468 103.754 23.5995 104.611 23.75C104.611 23.75 104.968 23.8253 105.039 23.9006C105.111 23.9758 105.182 24.1264 105.182 24.1264V24.2769C105.182 24.2769 105.182 24.3522 105.111 24.4274C105.039 24.5027 104.896 24.4274 104.896 24.4274H102.683H100.541C100.541 24.4274 100.469 24.4275 100.398 24.3522C100.326 24.2769 100.326 24.2016 100.326 24.2016V24.0511C100.326 24.0511 100.326 23.9758 100.469 23.8253C100.612 23.6748 100.898 23.6748 100.898 23.6748C101.469 23.5995 101.826 22.9221 102.04 22.5457C102.04 22.5457 102.04 22.4704 102.111 22.4704C102.183 22.3199 102.54 21.4919 102.897 20.5887C103.254 19.6855 103.611 18.6317 103.754 18.3306C104.182 17.2016 104.611 16.1478 105.253 14.4919C105.61 13.5887 106.11 12.2338 106.396 11.4811L106.896 10.1263L107.467 9.82519ZM107.324 13.0618C107.467 13.3628 107.61 13.8145 107.681 14.0403C107.753 14.2661 108.038 14.9435 108.252 15.5457C108.467 16.1478 108.752 16.8252 108.895 17.1263C109.038 17.4274 109.109 17.6532 109.109 17.6532C109.109 17.6532 108.252 17.6532 107.181 17.6532C105.967 17.6532 105.253 17.6532 105.253 17.5779C105.253 17.5779 105.325 17.4274 105.325 17.2769C105.396 17.0511 105.825 15.8467 106.681 13.2876C106.824 12.9112 106.967 12.5349 106.967 12.4596C107.039 12.4596 107.11 12.5349 107.324 13.0618Z" fill="#0C0A09"/>
</svg>
