<svg width="130" height="32" viewBox="0 0 130 32" fill="none" xmlns="http://www.w3.org/2000/svg">
<path d="M27.9126 9.50124L17.9673 26.8008L10.5342 22.5125L20.4795 5.21288L27.9126 9.50124ZM30.3949 22.4988L40.3402 5.19922L47.7733 9.48759L37.828 26.7872L30.3949 22.4988Z" fill="#0C0A09"/>
<path d="M1.09427 9.22371L1.09472 9.22448L11.0183 26.5282C11.3468 27.1011 11.8204 27.5767 12.391 27.9071C12.9306 28.2194 13.5389 28.3914 14.1605 28.4083H14.27C14.9101 28.4083 15.5372 28.2614 16.1227 27.9093L16.1297 27.905L16.1298 27.9051C16.9882 27.4061 17.615 26.5865 17.8728 25.6251C18.1306 24.6637 17.9983 23.6392 17.505 22.7755C17.5049 22.7754 17.5049 22.7754 17.5049 22.7753L7.58055 5.48904L7.58004 5.48815C6.5511 3.68813 4.26767 3.07689 2.46809 4.11182L1.09427 9.22371ZM1.09427 9.22371C0.849077 8.79777 0.690079 8.32747 0.626435 7.83973M1.09427 9.22371L0.626435 7.83973M0.626435 7.83973C0.56279 7.35199 0.595759 6.85646 0.723441 6.38154M0.626435 7.83973L0.723441 6.38154M0.723441 6.38154C0.851122 5.90662 1.07099 5.46169 1.37039 5.07223M0.723441 6.38154L1.37039 5.07223M1.37039 5.07223C1.66979 4.68277 2.04282 4.35643 2.46807 4.11184L1.37039 5.07223ZM47.782 7.35802C47.782 9.42506 46.102 11.1073 44.0433 11.1073C41.9846 11.1073 40.3045 9.42506 40.3045 7.35802C40.3045 5.29097 41.9846 3.60873 44.0433 3.60873C46.1157 3.60873 47.782 5.28972 47.782 7.35802Z" fill="white" stroke="#0C0A09" stroke-width="1.1"/>
<path d="M35.9779 27.9039L35.9779 27.9039L35.9736 27.9064C35.3973 28.2484 34.7543 28.4071 34.1181 28.4071C32.8114 28.4071 31.569 27.7337 30.8671 26.5245C30.8668 26.5241 30.8666 26.5237 30.8664 26.5233L20.9433 9.22275C20.9432 9.22264 20.9432 9.22253 20.9431 9.22242C20.4498 8.35875 20.3175 7.33429 20.5753 6.37299C20.833 5.41208 21.4594 4.59283 22.3171 4.09376C23.1779 3.60006 24.1984 3.46787 25.1559 3.7259C26.1136 3.98399 26.931 4.61163 27.4291 5.47218C27.4292 5.47247 27.4294 5.47276 27.4296 5.47304L37.353 22.7742C37.353 22.7743 37.3531 22.7744 37.3532 22.7746C37.8464 23.6382 37.9787 24.6626 37.7209 25.6239C37.4631 26.5853 36.8363 27.4049 35.9779 27.9039Z" fill="white" stroke="#0C0A09" stroke-width="1.1"/>
<path d="M71.3696 11.0163H68.91L66.9013 17.5503L64.8516 11.0163H63.1196L61.1109 17.5503L59.0612 11.0163H56.6426L60.1537 20.9817H62.0456L64.0071 14.7189L65.9912 20.9817H67.8605L71.3696 11.0163ZM81.9931 20.9817L81.5832 19.7489H78.0495L77.6396 20.9817H75.18L78.7362 11.0163H80.8556L84.4569 20.9817H81.9931ZM79.8492 13.8724L78.6193 17.9818H81.038L79.8492 13.8724ZM95.1029 10.9958L92.9836 14.9264L90.8642 10.9958H88.175L91.8234 17.4168V20.9591H94.1519V17.4414L97.7798 11.0204L95.1029 10.9958ZM113.411 10.9958V20.9612H111.156V14.8319L109.012 21.0023H107.303L105.089 14.8319V21.0023H102.834V11.0368H105.499L108.164 17.9818L110.787 11.0368L113.411 10.9958ZM118.949 15.999C118.949 13.256 120.911 10.7656 124.217 10.7656C127.523 10.7656 129.46 13.2786 129.46 15.999C129.46 18.7195 127.498 21.2324 124.217 21.2324C120.911 21.2529 118.949 18.7421 118.949 15.999ZM127.133 15.999C127.133 14.3552 126.016 12.845 124.215 12.845C122.37 12.845 121.296 14.3758 121.296 15.999C121.296 17.6222 122.39 19.153 124.215 19.153C126.018 19.1736 127.133 17.6448 127.133 15.999Z" fill="#0C0A09"/>
</svg>
